<svg xmlns="http://www.w3.org/2000/svg" xmlns:xlink="http://www.w3.org/1999/xlink" viewBox="0 0 269.21 55.29"><defs><style>.cls-1{fill:url(#Gradiente_sem_nome_149);}.cls-2{fill:#f2f2f2;}</style><linearGradient id="Gradiente_sem_nome_149" y1="27.64" x2="269.21" y2="27.64" gradientUnits="userSpaceOnUse"><stop offset="0" stop-color="#58b75b"/><stop offset="1" stop-color="#336fbc"/></linearGradient></defs><title>Ativo 21</title><g id="Camada_2" data-name="Camada 2"><g id="Layer_10" data-name="Layer 10"><rect class="cls-1" width="269.21" height="55.29" rx="16.78"/><path class="cls-2" d="M40.26,30.44H37v7.3H32.87v-20h7.42a8.37,8.37,0,0,1,5.45,1.58,5.43,5.43,0,0,1,1.92,4.45,6.13,6.13,0,0,1-.88,3.41,6,6,0,0,1-2.68,2.17l4.32,8.16v.19H44ZM37,27.11H40.3a3.44,3.44,0,0,0,2.4-.79,2.82,2.82,0,0,0,.85-2.18,3,3,0,0,0-.8-2.22,3.35,3.35,0,0,0-2.46-.81H37Z"/><path class="cls-2" d="M57.36,38A7.32,7.32,0,0,1,52,36a7.17,7.17,0,0,1-2-5.34V30.3a8.94,8.94,0,0,1,.87-4,6.27,6.27,0,0,1,2.45-2.71,6.81,6.81,0,0,1,3.61-1,6.18,6.18,0,0,1,4.79,1.92A7.8,7.8,0,0,1,63.46,30v1.62H54A3.75,3.75,0,0,0,55.17,34a3.53,3.53,0,0,0,2.45.87,4.27,4.27,0,0,0,3.58-1.66l1.94,2.19a5.86,5.86,0,0,1-2.41,2A7.91,7.91,0,0,1,57.36,38Zm-.45-12.19a2.5,2.5,0,0,0-1.92.8,4.13,4.13,0,0,0-.94,2.28h5.52V28.6a3,3,0,0,0-.72-2.05A2.54,2.54,0,0,0,56.91,25.83Z"/><path class="cls-2" d="M65.13,30.22a8.65,8.65,0,0,1,1.63-5.5,5.26,5.26,0,0,1,4.38-2.09,4.62,4.62,0,0,1,3.8,1.68l.16-1.4h3.59V37.25a6.34,6.34,0,0,1-.88,3.39,5.66,5.66,0,0,1-2.49,2.19,8.79,8.79,0,0,1-3.76.76,8.06,8.06,0,0,1-3.18-.66A5.57,5.57,0,0,1,66,41.25l1.75-2.41a4.64,4.64,0,0,0,3.59,1.66,3.41,3.41,0,0,0,2.46-.84,3.18,3.18,0,0,0,.88-2.39v-.8A4.61,4.61,0,0,1,71.11,38a5.28,5.28,0,0,1-4.33-2.09,8.71,8.71,0,0,1-1.65-5.55Zm4,.29a5.43,5.43,0,0,0,.81,3.17,2.58,2.58,0,0,0,2.22,1.14,2.75,2.75,0,0,0,2.6-1.36V27.22a2.75,2.75,0,0,0-2.57-1.36A2.6,2.6,0,0,0,69.91,27,6.16,6.16,0,0,0,69.09,30.51Z"/><path class="cls-2" d="M81.71,19.07a2,2,0,0,1,.6-1.47A2.22,2.22,0,0,1,83.93,17a2.26,2.26,0,0,1,1.62.57,2,2,0,0,1,.6,1.47,1.93,1.93,0,0,1-.61,1.48,2.52,2.52,0,0,1-3.22,0A1.93,1.93,0,0,1,81.71,19.07Zm4.21,18.67h-4V22.91h4Z"/><path class="cls-2" d="M97.22,33.65a1.28,1.28,0,0,0-.72-1.15,8.15,8.15,0,0,0-2.31-.75q-5.3-1.11-5.3-4.49A4.08,4.08,0,0,1,90.53,24a6.62,6.62,0,0,1,4.29-1.33A7.12,7.12,0,0,1,99.33,24a4.2,4.2,0,0,1,1.7,3.46h-4A2,2,0,0,0,96.52,26a2.34,2.34,0,0,0-1.72-.55,2.4,2.4,0,0,0-1.55.45,1.44,1.44,0,0,0-.54,1.15,1.22,1.22,0,0,0,.62,1.07,6.56,6.56,0,0,0,2.1.7,16.17,16.17,0,0,1,2.5.66q3.13,1.16,3.14,4a3.86,3.86,0,0,1-1.74,3.28A7.49,7.49,0,0,1,94.83,38a7.74,7.74,0,0,1-3.31-.67,5.58,5.58,0,0,1-2.27-1.82,4.22,4.22,0,0,1-.82-2.5h3.75A2.09,2.09,0,0,0,93,34.65a3.11,3.11,0,0,0,1.94.56,2.9,2.9,0,0,0,1.72-.43A1.36,1.36,0,0,0,97.22,33.65Z"/><path class="cls-2" d="M108.36,19.26v3.65h2.54v2.91h-2.54v7.4a1.77,1.77,0,0,0,.32,1.18,1.57,1.57,0,0,0,1.21.36,6.6,6.6,0,0,0,1.16-.1v3a8,8,0,0,1-2.4.36c-2.78,0-4.19-1.4-4.25-4.21v-8h-2.16V22.91h2.16V19.26Z"/><path class="cls-2" d="M119.94,38a7.32,7.32,0,0,1-5.32-2,7.17,7.17,0,0,1-2.05-5.34V30.3a8.94,8.94,0,0,1,.87-4,6.27,6.27,0,0,1,2.45-2.71,6.81,6.81,0,0,1,3.61-1,6.19,6.19,0,0,1,4.79,1.92A7.8,7.8,0,0,1,126,30v1.62h-9.45A3.75,3.75,0,0,0,117.75,34a3.51,3.51,0,0,0,2.45.87,4.28,4.28,0,0,0,3.58-1.66l1.94,2.19a5.86,5.86,0,0,1-2.41,2A7.91,7.91,0,0,1,119.94,38Zm-.46-12.19a2.49,2.49,0,0,0-1.91.8,4.13,4.13,0,0,0-.94,2.28h5.51V28.6a2.91,2.91,0,0,0-.71-2.05A2.56,2.56,0,0,0,119.48,25.83Z"/><path class="cls-2" d="M136.62,26.62a11.08,11.08,0,0,0-1.42-.1A2.9,2.9,0,0,0,132.25,28v9.7h-4V22.91H132l.11,1.77a3.68,3.68,0,0,1,3.3-2.05,4.18,4.18,0,0,1,1.24.18Z"/><path class="cls-2" d="M158.88,30.46a8.91,8.91,0,0,1-1.56,5.5,5,5,0,0,1-4.2,2.06,4.65,4.65,0,0,1-3.64-1.56v7h-4V22.91h3.68l.13,1.45a4.68,4.68,0,0,1,3.76-1.73,5,5,0,0,1,4.26,2,9.13,9.13,0,0,1,1.53,5.6Zm-4-.28a5.85,5.85,0,0,0-.73-3.2,2.39,2.39,0,0,0-2.13-1.12,2.61,2.61,0,0,0-2.57,1.42v6.08a2.64,2.64,0,0,0,2.6,1.46C154,34.82,154.91,33.28,154.91,30.18Z"/><path class="cls-2" d="M169.67,26.62a11.23,11.23,0,0,0-1.43-.1,2.9,2.9,0,0,0-3,1.52v9.7h-4V22.91h3.75l.1,1.77a3.69,3.69,0,0,1,3.31-2.05,4.06,4.06,0,0,1,1.23.18Z"/><path class="cls-2" d="M170.46,30.19a8.94,8.94,0,0,1,.85-3.94,6.28,6.28,0,0,1,2.45-2.67,7.16,7.16,0,0,1,3.71-.95,6.77,6.77,0,0,1,4.9,1.84,7.39,7.39,0,0,1,2.12,5l0,1A7.78,7.78,0,0,1,182.61,36a7.38,7.38,0,0,1-10.23,0,7.86,7.86,0,0,1-1.92-5.59Zm4,.28a5.52,5.52,0,0,0,.79,3.23,2.87,2.87,0,0,0,4.53,0,6.17,6.17,0,0,0,.8-3.54,5.56,5.56,0,0,0-.8-3.21,2.63,2.63,0,0,0-2.28-1.14A2.6,2.6,0,0,0,175.22,27,6.2,6.2,0,0,0,174.43,30.47Z"/><path class="cls-2" d="M186.34,30.22a8.92,8.92,0,0,1,1.56-5.53,5.05,5.05,0,0,1,4.26-2.06,4.53,4.53,0,0,1,3.57,1.62V16.68h4V37.74h-3.58l-.19-1.57A4.68,4.68,0,0,1,192.13,38,5.06,5.06,0,0,1,187.92,36,9.28,9.28,0,0,1,186.34,30.22Zm4,.29a5.9,5.9,0,0,0,.73,3.2,2.38,2.38,0,0,0,2.11,1.11,2.63,2.63,0,0,0,2.59-1.55V27.41a2.59,2.59,0,0,0-2.56-1.55Q190.31,25.86,190.3,30.51Z"/><path class="cls-2" d="M211.67,36.24A5,5,0,0,1,207.61,38,4.69,4.69,0,0,1,204,36.65a5.85,5.85,0,0,1-1.29-4V22.91h4V32.5c0,1.55.7,2.32,2.11,2.32a2.85,2.85,0,0,0,2.77-1.4V22.91h4V37.74h-3.72Z"/><path class="cls-2" d="M224.66,34.82a2.62,2.62,0,0,0,1.79-.6,2.14,2.14,0,0,0,.71-1.6h3.72a5.11,5.11,0,0,1-.83,2.76,5.44,5.44,0,0,1-2.21,1.95,7,7,0,0,1-3.11.69,6.45,6.45,0,0,1-5-2,8,8,0,0,1-1.83-5.59v-.26a7.92,7.92,0,0,1,1.82-5.47,6.38,6.38,0,0,1,5-2.05,6.23,6.23,0,0,1,4.46,1.59,5.61,5.61,0,0,1,1.71,4.22h-3.72a2.78,2.78,0,0,0-.71-1.89,2.65,2.65,0,0,0-3.9.29,5.83,5.83,0,0,0-.71,3.27v.42a5.87,5.87,0,0,0,.7,3.29A2.41,2.41,0,0,0,224.66,34.82Z"/><path class="cls-2" d="M237.88,19.26v3.65h2.54v2.91h-2.54v7.4a1.77,1.77,0,0,0,.32,1.18,1.56,1.56,0,0,0,1.2.36,6.72,6.72,0,0,0,1.17-.1v3a8.12,8.12,0,0,1-2.4.36q-4.17,0-4.25-4.21v-8h-2.17V22.91h2.17V19.26Z"/></g></g></svg>