<svg xmlns="http://www.w3.org/2000/svg" xmlns:xlink="http://www.w3.org/1999/xlink" viewBox="0 0 320.21 55.29"><defs><style>.cls-1{fill:url(#Gradiente_sem_nome_149);}.cls-2{fill:#f2f2f2;}</style><linearGradient id="Gradiente_sem_nome_149" y1="27.64" x2="320.21" y2="27.64" gradientUnits="userSpaceOnUse"><stop offset="0" stop-color="#58b75b"/><stop offset="1" stop-color="#336fbc"/></linearGradient></defs><title>Ativo 23</title><g id="Camada_2" data-name="Camada 2"><g id="Layer_10" data-name="Layer 10"><rect class="cls-1" width="320.21" height="55.29" rx="16.78"/><path class="cls-2" d="M37.67,31.39H34.61v6.84H30.76V19.54H37.7A7.88,7.88,0,0,1,42.81,21a5.08,5.08,0,0,1,1.8,4.17,5.24,5.24,0,0,1-3.34,5.23l4,7.63v.18H41.18Zm-3.06-3.12h3.1A3.15,3.15,0,0,0,40,27.53a2.64,2.64,0,0,0,.8-2A2.8,2.8,0,0,0,40,23.42a3.12,3.12,0,0,0-2.3-.76H34.61Z"/><path class="cls-2" d="M53.68,38.49a6.81,6.81,0,0,1-5-1.88,6.64,6.64,0,0,1-1.92-5v-.36a8.39,8.39,0,0,1,.81-3.74A5.83,5.83,0,0,1,49.89,25a6.37,6.37,0,0,1,3.38-.89,5.81,5.81,0,0,1,4.49,1.79A7.32,7.32,0,0,1,59.39,31v1.51H50.55a3.48,3.48,0,0,0,1.08,2.19,3.33,3.33,0,0,0,2.29.82,4,4,0,0,0,3.35-1.56L59.1,36a5.65,5.65,0,0,1-2.26,1.84A7.42,7.42,0,0,1,53.68,38.49Zm-.42-11.41a2.3,2.3,0,0,0-1.79.75A3.84,3.84,0,0,0,50.59,30h5.16v-.3a2.74,2.74,0,0,0-.67-1.91A2.37,2.37,0,0,0,53.26,27.08Z"/><path class="cls-2" d="M61,31.18A8.08,8.08,0,0,1,62.48,26a4.92,4.92,0,0,1,4.1-1.95,4.31,4.31,0,0,1,3.55,1.56l.16-1.31h3.36V37.77a5.88,5.88,0,0,1-.83,3.17A5.29,5.29,0,0,1,70.49,43,8.17,8.17,0,0,1,67,43.7a7.57,7.57,0,0,1-3-.61,5.35,5.35,0,0,1-2.2-1.57l1.65-2.26a4.34,4.34,0,0,0,3.36,1.55,3.18,3.18,0,0,0,2.3-.79,3,3,0,0,0,.82-2.24V37a4.29,4.29,0,0,1-3.38,1.45,4.9,4.9,0,0,1-4-2A8.12,8.12,0,0,1,61,31.34Zm3.71.28a5.14,5.14,0,0,0,.75,3A2.43,2.43,0,0,0,67.5,35.5a2.6,2.6,0,0,0,2.43-1.27V28.38a2.58,2.58,0,0,0-2.4-1.28,2.43,2.43,0,0,0-2.1,1.1A5.69,5.69,0,0,0,64.67,31.46Z"/><path class="cls-2" d="M76.47,20.75A1.82,1.82,0,0,1,77,19.38a2.41,2.41,0,0,1,3,0,2,2,0,0,1,0,2.76,2.37,2.37,0,0,1-3,0A1.8,1.8,0,0,1,76.47,20.75Zm3.94,17.48H76.69V24.34h3.72Z"/><path class="cls-2" d="M91,34.39a1.19,1.19,0,0,0-.67-1.07,7.83,7.83,0,0,0-2.17-.7q-5-1-5-4.21a3.8,3.8,0,0,1,1.53-3.08,6.18,6.18,0,0,1,4-1.24A6.63,6.63,0,0,1,93,25.33a3.92,3.92,0,0,1,1.59,3.24H90.85a1.82,1.82,0,0,0-.51-1.32,2.22,2.22,0,0,0-1.61-.52,2.18,2.18,0,0,0-1.45.43,1.33,1.33,0,0,0-.51,1.07,1.14,1.14,0,0,0,.58,1,6,6,0,0,0,2,.65,15.74,15.74,0,0,1,2.34.63c2,.71,2.94,2,2.94,3.73A3.62,3.62,0,0,1,93,37.31a7,7,0,0,1-4.21,1.18,7.39,7.39,0,0,1-3.1-.62,5.29,5.29,0,0,1-2.13-1.71,4,4,0,0,1-.77-2.34h3.52A1.92,1.92,0,0,0,87,35.33a2.92,2.92,0,0,0,1.82.53,2.67,2.67,0,0,0,1.61-.41A1.24,1.24,0,0,0,91,34.39Z"/><path class="cls-2" d="M101.42,20.93v3.41h2.38v2.73h-2.38V34a1.63,1.63,0,0,0,.3,1.1,1.49,1.49,0,0,0,1.13.33,5.93,5.93,0,0,0,1.09-.09v2.81a7.44,7.44,0,0,1-2.25.34q-3.9,0-4-3.94V27.07h-2V24.34h2V20.93Z"/><path class="cls-2" d="M112.26,38.49a6.83,6.83,0,0,1-5-1.88,6.64,6.64,0,0,1-1.92-5v-.36a8.39,8.39,0,0,1,.81-3.74A6,6,0,0,1,108.46,25a6.4,6.4,0,0,1,3.39-.89,5.77,5.77,0,0,1,4.48,1.79A7.32,7.32,0,0,1,118,31v1.51h-8.84a3.48,3.48,0,0,0,1.08,2.19,3.31,3.31,0,0,0,2.29.82,4,4,0,0,0,3.35-1.56L117.67,36a5.58,5.58,0,0,1-2.26,1.84A7.37,7.37,0,0,1,112.26,38.49Zm-.43-11.41a2.33,2.33,0,0,0-1.79.75,3.91,3.91,0,0,0-.88,2.14h5.16v-.3a2.74,2.74,0,0,0-.66-1.91A2.38,2.38,0,0,0,111.83,27.08Z"/><path class="cls-2" d="M127.88,27.82a9.85,9.85,0,0,0-1.34-.1,2.72,2.72,0,0,0-2.76,1.42v9.09h-3.71V24.34h3.51l.1,1.66a3.44,3.44,0,0,1,3.09-1.91,3.66,3.66,0,0,1,1.16.17Z"/><path class="cls-2" d="M151.65,38.23H147.8l-7.5-12.29V38.23h-3.85V19.54h3.85l7.51,12.33V19.54h3.84Z"/><path class="cls-2" d="M161.16,38.49a6.83,6.83,0,0,1-5-1.88,6.64,6.64,0,0,1-1.92-5v-.36a8.39,8.39,0,0,1,.81-3.74A6,6,0,0,1,157.36,25a6.4,6.4,0,0,1,3.39-.89,5.77,5.77,0,0,1,4.48,1.79,7.32,7.32,0,0,1,1.64,5.1v1.51H158a3.48,3.48,0,0,0,1.08,2.19,3.31,3.31,0,0,0,2.29.82,4,4,0,0,0,3.35-1.56L166.57,36a5.58,5.58,0,0,1-2.26,1.84A7.37,7.37,0,0,1,161.16,38.49Zm-.43-11.41a2.33,2.33,0,0,0-1.79.75,3.91,3.91,0,0,0-.88,2.14h5.16v-.3a2.74,2.74,0,0,0-.66-1.91A2.38,2.38,0,0,0,160.73,27.08Z"/><path class="cls-2" d="M181.05,33.19l1.82-8.85h3.58l-3.54,13.89h-3.1l-2.64-8.74-2.63,8.74h-3.09l-3.54-13.89h3.58l1.81,8.84,2.54-8.84h2.68Z"/><path class="cls-2" d="M204.77,33.33a2,2,0,0,0-.77-1.68,10,10,0,0,0-2.77-1.23,19.22,19.22,0,0,1-3.17-1.28c-2.12-1.14-3.19-2.69-3.19-4.63a4.5,4.5,0,0,1,.86-2.7A5.6,5.6,0,0,1,198.18,20a9.3,9.3,0,0,1,3.59-.66,8.49,8.49,0,0,1,3.57.72,5.77,5.77,0,0,1,2.43,2,5.4,5.4,0,0,1,.86,3h-3.85a2.51,2.51,0,0,0-.81-2,3.27,3.27,0,0,0-2.27-.72,3.52,3.52,0,0,0-2.19.6,1.89,1.89,0,0,0-.79,1.57,1.81,1.81,0,0,0,.92,1.53,10.35,10.35,0,0,0,2.7,1.16,11.64,11.64,0,0,1,4.79,2.45,4.87,4.87,0,0,1,1.5,3.64,4.51,4.51,0,0,1-1.83,3.81,8,8,0,0,1-4.94,1.38,9.48,9.48,0,0,1-3.93-.79,6.27,6.27,0,0,1-2.7-2.16,5.57,5.57,0,0,1-.93-3.19h3.86q0,3.1,3.7,3.1a3.6,3.6,0,0,0,2.14-.56A1.82,1.82,0,0,0,204.77,33.33Z"/><path class="cls-2" d="M219.31,36.82a4.65,4.65,0,0,1-3.8,1.67,4.35,4.35,0,0,1-3.4-1.29,5.38,5.38,0,0,1-1.2-3.76v-9.1h3.7v9c0,1.44.66,2.17,2,2.17a2.68,2.68,0,0,0,2.59-1.31V24.34h3.73V38.23h-3.49Z"/><path class="cls-2" d="M238.2,31.42a8.34,8.34,0,0,1-1.45,5.14,4.69,4.69,0,0,1-3.94,1.93,4.33,4.33,0,0,1-3.4-1.47v6.55H225.7V24.34h3.44l.13,1.36a4.38,4.38,0,0,1,3.52-1.61,4.69,4.69,0,0,1,4,1.9,8.53,8.53,0,0,1,1.42,5.23Zm-3.7-.27a5.42,5.42,0,0,0-.69-3,2.23,2.23,0,0,0-2-1.06,2.44,2.44,0,0,0-2.4,1.34v5.68a2.47,2.47,0,0,0,2.43,1.38Q234.5,35.5,234.5,31.15Z"/><path class="cls-2" d="M253,31.42a8.34,8.34,0,0,1-1.45,5.14,4.7,4.7,0,0,1-3.94,1.93,4.33,4.33,0,0,1-3.4-1.47v6.55H240.5V24.34h3.44l.13,1.36a4.38,4.38,0,0,1,3.52-1.61,4.69,4.69,0,0,1,4,1.9A8.53,8.53,0,0,1,253,31.22Zm-3.71-.27a5.51,5.51,0,0,0-.68-3,2.24,2.24,0,0,0-2-1.06,2.44,2.44,0,0,0-2.4,1.34v5.68a2.47,2.47,0,0,0,2.43,1.38Q249.3,35.5,249.29,31.15Z"/><path class="cls-2" d="M259.22,38.23h-3.73V18.52h3.73Z"/><path class="cls-2" d="M262.24,20.75a1.82,1.82,0,0,1,.56-1.37,2.41,2.41,0,0,1,3,0,2,2,0,0,1,0,2.76,2.1,2.1,0,0,1-1.51.54,2.13,2.13,0,0,1-1.51-.54A1.82,1.82,0,0,1,262.24,20.75Zm3.94,17.48h-3.72V24.34h3.72Z"/><path class="cls-2" d="M275.63,38.49a6.81,6.81,0,0,1-5-1.88,6.64,6.64,0,0,1-1.92-5v-.36a8.39,8.39,0,0,1,.81-3.74A5.89,5.89,0,0,1,271.84,25a6.37,6.37,0,0,1,3.38-.89,5.79,5.79,0,0,1,4.49,1.79,7.32,7.32,0,0,1,1.63,5.1v1.51H272.5a3.48,3.48,0,0,0,1.08,2.19,3.34,3.34,0,0,0,2.3.82,4,4,0,0,0,3.34-1.56L281.05,36a5.65,5.65,0,0,1-2.26,1.84A7.42,7.42,0,0,1,275.63,38.49Zm-.42-11.41a2.3,2.3,0,0,0-1.79.75,3.84,3.84,0,0,0-.88,2.14h5.16v-.3a2.74,2.74,0,0,0-.67-1.91A2.37,2.37,0,0,0,275.21,27.08Z"/><path class="cls-2" d="M291.25,27.82a9.72,9.72,0,0,0-1.33-.1,2.7,2.7,0,0,0-2.76,1.42v9.09h-3.71V24.34H287l.1,1.66a3.46,3.46,0,0,1,3.1-1.91,3.6,3.6,0,0,1,1.15.17Z"/></g></g></svg>