<svg xmlns="http://www.w3.org/2000/svg" xmlns:xlink="http://www.w3.org/1999/xlink" viewBox="0 0 320.21 55.29"><defs><style>.cls-1{fill:url(#Gradiente_sem_nome_149);}.cls-2{fill:#f2f2f2;}</style><linearGradient id="Gradiente_sem_nome_149" y1="27.64" x2="320.21" y2="27.64" gradientUnits="userSpaceOnUse"><stop offset="0" stop-color="#58b75b"/><stop offset="1" stop-color="#336fbc"/></linearGradient></defs><title>Ativo 24</title><g id="Camada_2" data-name="Camada 2"><g id="Layer_10" data-name="Layer 10"><rect class="cls-1" width="320.21" height="55.29" rx="16.78"/><path class="cls-2" d="M37.67,31.39H34.61v6.84H30.76V19.54H37.7A7.88,7.88,0,0,1,42.81,21a5.08,5.08,0,0,1,1.8,4.17,5.24,5.24,0,0,1-3.34,5.23l4,7.63v.18H41.18Zm-3.06-3.12h3.1A3.15,3.15,0,0,0,40,27.53a2.64,2.64,0,0,0,.8-2A2.8,2.8,0,0,0,40,23.42a3.12,3.12,0,0,0-2.3-.76H34.61Z"/><path class="cls-2" d="M53.68,38.49a6.81,6.81,0,0,1-5-1.88,6.64,6.64,0,0,1-1.92-5v-.36a8.39,8.39,0,0,1,.81-3.74A5.83,5.83,0,0,1,49.89,25a6.46,6.46,0,0,1,3.38-.89,5.81,5.81,0,0,1,4.49,1.79A7.32,7.32,0,0,1,59.39,31v1.51H50.55a3.48,3.48,0,0,0,1.08,2.19,3.33,3.33,0,0,0,2.29.82,4,4,0,0,0,3.35-1.56L59.1,36a5.65,5.65,0,0,1-2.26,1.84A7.42,7.42,0,0,1,53.68,38.49Zm-.42-11.41a2.3,2.3,0,0,0-1.79.75A3.84,3.84,0,0,0,50.59,30h5.16v-.3a2.74,2.74,0,0,0-.67-1.91A2.37,2.37,0,0,0,53.26,27.08Z"/><path class="cls-2" d="M61,31.19A8.11,8.11,0,0,1,62.48,26a4.92,4.92,0,0,1,4.1-1.95,4.31,4.31,0,0,1,3.55,1.56l.16-1.31h3.36V37.77a5.88,5.88,0,0,1-.83,3.17A5.29,5.29,0,0,1,70.49,43,8.17,8.17,0,0,1,67,43.7a7.57,7.57,0,0,1-3-.61,5.35,5.35,0,0,1-2.2-1.57l1.65-2.26a4.34,4.34,0,0,0,3.36,1.55,3.18,3.18,0,0,0,2.3-.79,3,3,0,0,0,.82-2.24V37a4.29,4.29,0,0,1-3.38,1.45,4.9,4.9,0,0,1-4-2A8.12,8.12,0,0,1,61,31.34Zm3.71.27a5.08,5.08,0,0,0,.75,3A2.41,2.41,0,0,0,67.5,35.5a2.6,2.6,0,0,0,2.43-1.27V28.38a2.58,2.58,0,0,0-2.4-1.28,2.43,2.43,0,0,0-2.1,1.1A5.69,5.69,0,0,0,64.67,31.46Z"/><path class="cls-2" d="M76.47,20.75A1.82,1.82,0,0,1,77,19.38a2.41,2.41,0,0,1,3,0,2,2,0,0,1,0,2.76,2.37,2.37,0,0,1-3,0A1.8,1.8,0,0,1,76.47,20.75Zm3.94,17.48H76.69V24.34h3.72Z"/><path class="cls-2" d="M91,34.39a1.19,1.19,0,0,0-.67-1.07,7.83,7.83,0,0,0-2.17-.7q-5-1-5-4.21a3.8,3.8,0,0,1,1.53-3.08,6.18,6.18,0,0,1,4-1.24A6.63,6.63,0,0,1,93,25.33a3.92,3.92,0,0,1,1.59,3.24H90.85a1.82,1.82,0,0,0-.51-1.32,2.71,2.71,0,0,0-3.06-.09,1.33,1.33,0,0,0-.51,1.07,1.14,1.14,0,0,0,.58,1,6,6,0,0,0,2,.65,15.74,15.74,0,0,1,2.34.63c2,.71,2.94,2,2.94,3.73A3.62,3.62,0,0,1,93,37.31a7,7,0,0,1-4.21,1.18,7.39,7.39,0,0,1-3.1-.62,5.29,5.29,0,0,1-2.13-1.71,4,4,0,0,1-.77-2.34h3.52A1.92,1.92,0,0,0,87,35.33a2.92,2.92,0,0,0,1.82.53,2.67,2.67,0,0,0,1.61-.41A1.24,1.24,0,0,0,91,34.39Z"/><path class="cls-2" d="M101.42,20.93v3.41h2.38v2.73h-2.38V34a1.63,1.63,0,0,0,.3,1.1,1.49,1.49,0,0,0,1.13.33,5.93,5.93,0,0,0,1.09-.09v2.81a7.44,7.44,0,0,1-2.25.34q-3.9,0-4-3.94V27.07h-2V24.34h2V20.93Z"/><path class="cls-2" d="M112.26,38.49a6.83,6.83,0,0,1-5-1.88,6.64,6.64,0,0,1-1.92-5v-.36a8.39,8.39,0,0,1,.81-3.74A6,6,0,0,1,108.46,25a6.5,6.5,0,0,1,3.39-.89,5.77,5.77,0,0,1,4.48,1.79A7.32,7.32,0,0,1,118,31v1.51h-8.84a3.48,3.48,0,0,0,1.08,2.19,3.31,3.31,0,0,0,2.29.82,4,4,0,0,0,3.35-1.56L117.67,36a5.58,5.58,0,0,1-2.26,1.84A7.37,7.37,0,0,1,112.26,38.49Zm-.43-11.41a2.33,2.33,0,0,0-1.79.75,3.91,3.91,0,0,0-.88,2.14h5.16v-.3a2.74,2.74,0,0,0-.66-1.91A2.38,2.38,0,0,0,111.83,27.08Z"/><path class="cls-2" d="M127.88,27.82a9.85,9.85,0,0,0-1.34-.1,2.72,2.72,0,0,0-2.76,1.42v9.09h-3.71V24.34h3.51l.1,1.66a3.44,3.44,0,0,1,3.09-1.91,4,4,0,0,1,1.16.16Z"/><path class="cls-2" d="M151.65,38.23H147.8l-7.5-12.29V38.23h-3.85V19.54h3.85l7.51,12.33V19.54h3.84Z"/><path class="cls-2" d="M161.16,38.49a6.83,6.83,0,0,1-5-1.88,6.64,6.64,0,0,1-1.92-5v-.36a8.39,8.39,0,0,1,.81-3.74A6,6,0,0,1,157.36,25a6.5,6.5,0,0,1,3.39-.89,5.77,5.77,0,0,1,4.48,1.79,7.32,7.32,0,0,1,1.64,5.1v1.51H158a3.48,3.48,0,0,0,1.08,2.19,3.31,3.31,0,0,0,2.29.82,4,4,0,0,0,3.35-1.56L166.57,36a5.58,5.58,0,0,1-2.26,1.84A7.37,7.37,0,0,1,161.16,38.49Zm-.43-11.41a2.33,2.33,0,0,0-1.79.75,3.91,3.91,0,0,0-.88,2.14h5.16v-.3a2.74,2.74,0,0,0-.66-1.91A2.38,2.38,0,0,0,160.73,27.08Z"/><path class="cls-2" d="M181.05,33.19l1.82-8.85h3.58l-3.54,13.89h-3.1l-2.64-8.74-2.63,8.74h-3.09l-3.54-13.89h3.58l1.81,8.83,2.54-8.83h2.68Z"/><path class="cls-2" d="M200.11,19.54l4.8,13.56,4.78-13.56h5.05V38.23h-3.86V33.12l.38-8.81-5,13.92h-2.64l-5-13.91.38,8.8v5.11h-3.85V19.54Z"/><path class="cls-2" d="M225.91,38.23a4,4,0,0,1-.37-1.24,4.5,4.5,0,0,1-3.51,1.5,4.92,4.92,0,0,1-3.38-1.18,3.82,3.82,0,0,1-1.34-3A3.91,3.91,0,0,1,219,30.94a8,8,0,0,1,4.73-1.19h1.7V29a2.3,2.3,0,0,0-.49-1.54,2,2,0,0,0-1.56-.58,2.19,2.19,0,0,0-1.47.45,1.52,1.52,0,0,0-.53,1.24h-3.71a3.78,3.78,0,0,1,.74-2.24,5,5,0,0,1,2.11-1.61,7.61,7.61,0,0,1,3.05-.58,6.08,6.08,0,0,1,4.08,1.29A4.52,4.52,0,0,1,229.1,29v6a6.61,6.61,0,0,0,.56,3v.22Zm-3.07-2.58a3.27,3.27,0,0,0,1.52-.36,2.38,2.38,0,0,0,1-1V31.92H224q-2.79,0-3,1.92v.22a1.47,1.47,0,0,0,.49,1.14A1.88,1.88,0,0,0,222.84,35.65Z"/><path class="cls-2" d="M236.39,20.93v3.41h2.38v2.73h-2.38V34a1.63,1.63,0,0,0,.3,1.1,1.49,1.49,0,0,0,1.13.33,5.93,5.93,0,0,0,1.09-.09v2.81a7.44,7.44,0,0,1-2.25.34q-3.9,0-4-3.94V27.07h-2V24.34h2V20.93Z"/><path class="cls-2" d="M247.23,38.49a6.83,6.83,0,0,1-5-1.88,6.63,6.63,0,0,1-1.91-5v-.36a8.38,8.38,0,0,1,.8-3.74A6,6,0,0,1,243.43,25a6.5,6.5,0,0,1,3.39-.89,5.77,5.77,0,0,1,4.48,1.79,7.32,7.32,0,0,1,1.64,5.1v1.51H244.1a3.48,3.48,0,0,0,1.08,2.19,3.31,3.31,0,0,0,2.29.82,4,4,0,0,0,3.35-1.56L252.64,36a5.51,5.51,0,0,1-2.26,1.84A7.37,7.37,0,0,1,247.23,38.49Zm-.43-11.41a2.33,2.33,0,0,0-1.79.75,3.91,3.91,0,0,0-.88,2.14h5.16v-.3a2.74,2.74,0,0,0-.66-1.91A2.38,2.38,0,0,0,246.8,27.08Z"/><path class="cls-2" d="M262.85,27.82a9.85,9.85,0,0,0-1.34-.1,2.72,2.72,0,0,0-2.76,1.42v9.09H255V24.34h3.51l.1,1.66a3.44,3.44,0,0,1,3.09-1.91,4,4,0,0,1,1.16.16Z"/><path class="cls-2" d="M264.61,20.75a1.82,1.82,0,0,1,.55-1.37,2.41,2.41,0,0,1,3,0,1.79,1.79,0,0,1,.56,1.37,1.82,1.82,0,0,1-.57,1.39,2.37,2.37,0,0,1-3,0A1.82,1.82,0,0,1,264.61,20.75Zm3.94,17.48h-3.73V24.34h3.73Z"/><path class="cls-2" d="M279.65,38.23a4,4,0,0,1-.37-1.24,4.5,4.5,0,0,1-3.51,1.5,4.91,4.91,0,0,1-3.38-1.18,3.82,3.82,0,0,1-1.34-3,3.93,3.93,0,0,1,1.63-3.39,8.1,8.1,0,0,1,4.74-1.19h1.7V29a2.3,2.3,0,0,0-.49-1.54,2,2,0,0,0-1.56-.58,2.19,2.19,0,0,0-1.47.45,1.52,1.52,0,0,0-.53,1.24h-3.71a3.72,3.72,0,0,1,.74-2.24,5,5,0,0,1,2.11-1.61,7.61,7.61,0,0,1,3.05-.58,6.08,6.08,0,0,1,4.08,1.29,4.52,4.52,0,0,1,1.5,3.62v6a6.61,6.61,0,0,0,.56,3v.22Zm-3.07-2.58a3.21,3.21,0,0,0,1.51-.36,2.35,2.35,0,0,0,1-1V31.92h-1.38q-2.79,0-3,1.92v.22a1.47,1.47,0,0,0,.49,1.14A1.88,1.88,0,0,0,276.58,35.65Z"/><path class="cls-2" d="M289.61,38.23h-3.72V18.52h3.72Z"/></g></g></svg>