<svg xmlns="http://www.w3.org/2000/svg" xmlns:xlink="http://www.w3.org/1999/xlink" viewBox="0 0 298.7 55.29"><defs><style>.cls-1{fill:url(#Gradiente_sem_nome_149);}.cls-2{fill:#f2f2f2;}</style><linearGradient id="Gradiente_sem_nome_149" y1="27.64" x2="298.7" y2="27.64" gradientUnits="userSpaceOnUse"><stop offset="0" stop-color="#58b75b"/><stop offset="1" stop-color="#336fbc"/></linearGradient></defs><title>Ativo 22</title><g id="Camada_2" data-name="Camada 2"><g id="Layer_10" data-name="Layer 10"><rect class="cls-1" width="298.7" height="55.29" rx="16.78"/><path class="cls-2" d="M52.36,19.54V31.85a6.29,6.29,0,0,1-1.92,4.85,7.41,7.41,0,0,1-5.25,1.79A7.48,7.48,0,0,1,40,36.76,6.22,6.22,0,0,1,38,32V19.54h3.85V31.88a3.57,3.57,0,0,0,.88,2.67,3.39,3.39,0,0,0,2.43.85q3.26,0,3.3-3.42V19.54Z"/><path class="cls-2" d="M59.36,31.65v6.58H55.51V19.54H62.8a8.51,8.51,0,0,1,3.71.77A5.74,5.74,0,0,1,69,22.5a6.05,6.05,0,0,1,.86,3.23,5.34,5.34,0,0,1-1.88,4.33,7.81,7.81,0,0,1-5.2,1.59Zm0-3.12H62.8a3.37,3.37,0,0,0,2.33-.72,2.59,2.59,0,0,0,.81-2,3.06,3.06,0,0,0-.81-2.22,3,3,0,0,0-2.24-.88H59.36Z"/><path class="cls-2" d="M76.32,35.14h8.17v3.09h-12V19.54h3.85Z"/><path class="cls-2" d="M101.23,29.31a11.3,11.3,0,0,1-1,4.84,7.25,7.25,0,0,1-2.79,3.21,8.24,8.24,0,0,1-8.31,0,7.45,7.45,0,0,1-2.82-3.19,10.94,10.94,0,0,1-1-4.77v-.92a11.28,11.28,0,0,1,1-4.86,7.39,7.39,0,0,1,2.81-3.22,8.27,8.27,0,0,1,8.31,0,7.45,7.45,0,0,1,2.81,3.22,11.26,11.26,0,0,1,1,4.85Zm-3.9-.85a7.86,7.86,0,0,0-1-4.46,3.72,3.72,0,0,0-6,0,7.79,7.79,0,0,0-1.06,4.42v.91a8,8,0,0,0,1,4.44,3.69,3.69,0,0,0,6,.06,7.94,7.94,0,0,0,1-4.43Z"/><path class="cls-2" d="M114.31,34.38h-6.75l-1.29,3.85h-4.09l7-18.69h3.56l7,18.69h-4.09Zm-5.71-3.12h4.67l-2.35-7Z"/><path class="cls-2" d="M121.45,38.23V19.54h5.75a8.69,8.69,0,0,1,4.4,1.11,7.84,7.84,0,0,1,3,3.16,9.73,9.73,0,0,1,1.09,4.65v.86A9.83,9.83,0,0,1,134.66,34a7.68,7.68,0,0,1-3,3.14,8.77,8.77,0,0,1-4.41,1.13Zm3.85-15.57V35.14h1.86a4.17,4.17,0,0,0,3.45-1.48,6.71,6.71,0,0,0,1.22-4.22v-1a6.76,6.76,0,0,0-1.18-4.32,4.17,4.17,0,0,0-3.45-1.47Z"/><path class="cls-2" d="M160.27,38.23h-3.85l-7.5-12.29V38.23h-3.85V19.54h3.85l7.51,12.33V19.54h3.84Z"/><path class="cls-2" d="M174.88,30.13h-7.4v5h8.68v3.09H163.63V19.54h12.5v3.12h-8.65v4.46h7.4Z"/><path class="cls-2" d="M193,32.84l2.52-13.3h3.84l-4.15,18.69h-3.87l-3.05-12.5-3,12.5h-3.87L177.2,19.54H181l2.53,13.28,3.08-13.28h3.26Z"/><path class="cls-2" d="M208,38.23V19.54h5.75a8.76,8.76,0,0,1,4.41,1.11,7.84,7.84,0,0,1,3,3.16,9.85,9.85,0,0,1,1.09,4.65v.86A9.72,9.72,0,0,1,221.16,34a7.62,7.62,0,0,1-3,3.14,8.76,8.76,0,0,1-4.4,1.13Zm3.85-15.57V35.14h1.86a4.18,4.18,0,0,0,3.46-1.48,6.65,6.65,0,0,0,1.21-4.22v-1a6.76,6.76,0,0,0-1.18-4.32,4.14,4.14,0,0,0-3.45-1.47Z"/><path class="cls-2" d="M240.38,29.31a11.3,11.3,0,0,1-1,4.84,7.31,7.31,0,0,1-2.79,3.21,8.24,8.24,0,0,1-8.31,0,7.4,7.4,0,0,1-2.83-3.19,11.08,11.08,0,0,1-1-4.77v-.92a11.28,11.28,0,0,1,1-4.86,7.45,7.45,0,0,1,2.81-3.22,8.27,8.27,0,0,1,8.31,0,7.39,7.39,0,0,1,2.81,3.22,11.26,11.26,0,0,1,1,4.85Zm-3.9-.85a7.86,7.86,0,0,0-1-4.46,3.71,3.71,0,0,0-6,0,7.7,7.7,0,0,0-1.07,4.42v.91a8,8,0,0,0,1,4.44,3.69,3.69,0,0,0,6,.06,7.94,7.94,0,0,0,1-4.43Z"/><path class="cls-2" d="M257.85,32a6.6,6.6,0,0,1-2.22,4.75,7.86,7.86,0,0,1-5.3,1.73,7,7,0,0,1-5.65-2.42,9.88,9.88,0,0,1-2.06-6.64V28.28a11.05,11.05,0,0,1,.95-4.74,7.11,7.11,0,0,1,2.71-3.15,8.48,8.48,0,0,1,9.31.63,7.14,7.14,0,0,1,2.29,4.86H254a3.91,3.91,0,0,0-1-2.62,3.76,3.76,0,0,0-2.64-.81,3.27,3.27,0,0,0-2.88,1.37,7.76,7.76,0,0,0-1,4.29v1.41a8.31,8.31,0,0,0,.92,4.43,3.2,3.2,0,0,0,2.89,1.39,3.8,3.8,0,0,0,2.66-.81A3.62,3.62,0,0,0,254,32Z"/></g></g></svg>