<svg xmlns="http://www.w3.org/2000/svg" xmlns:xlink="http://www.w3.org/1999/xlink" viewBox="0 0 28.3 37.51"><defs><style>.cls-1{fill:#fff;}.cls-2{fill:none;stroke-linecap:round;stroke-linejoin:round;stroke-width:1.76px;stroke:url(#Gradiente_sem_nome_45);}</style><linearGradient id="Gradiente_sem_nome_45" x1="5.08" y1="8.95" x2="23.94" y2="8.95" gradientUnits="userSpaceOnUse"><stop offset="0" stop-color="#87eb8f"/><stop offset="1" stop-color="#5d9ef0"/></linearGradient></defs><title>icon_dark_mode</title><g id="Camada_2" data-name="Camada 2"><g id="Layer_10" data-name="Layer 10"><path class="cls-1" d="M0,37.37V27.31H3a4.73,4.73,0,0,1,2.37.59,4.08,4.08,0,0,1,1.6,1.69,5.32,5.32,0,0,1,.56,2.5v.51a5.31,5.31,0,0,1-.57,2.51,4,4,0,0,1-1.62,1.67,4.89,4.89,0,0,1-2.41.59Zm1.75-8.65V36H2.89A2.6,2.6,0,0,0,5,35.11a3.74,3.74,0,0,0,.75-2.47v-.56A3.88,3.88,0,0,0,5,29.58,2.56,2.56,0,0,0,3,28.72Z"/><path class="cls-1" d="M13.55,37.37a2.57,2.57,0,0,1-.19-.7,2.62,2.62,0,0,1-2,.84,2.65,2.65,0,0,1-1.83-.64,2.05,2.05,0,0,1-.72-1.59,2.14,2.14,0,0,1,.89-1.84,4.35,4.35,0,0,1,2.54-.64h1v-.49a1.36,1.36,0,0,0-.32-.93A1.31,1.31,0,0,0,12,31a1.48,1.48,0,0,0-.94.29.87.87,0,0,0-.37.73H9a1.88,1.88,0,0,1,.41-1.15,2.65,2.65,0,0,1,1.11-.84,4,4,0,0,1,1.57-.3,3.14,3.14,0,0,1,2.09.66,2.33,2.33,0,0,1,.8,1.85v3.37a3.94,3.94,0,0,0,.28,1.61v.12Zm-1.84-1.21a1.9,1.9,0,0,0,.93-.24,1.65,1.65,0,0,0,.66-.65V33.86h-.9a2.56,2.56,0,0,0-1.41.32,1.07,1.07,0,0,0-.47.92,1,1,0,0,0,.32.77A1.24,1.24,0,0,0,11.71,36.16Z"/><path class="cls-1" d="M20.65,31.43a3.74,3.74,0,0,0-.68-.06,1.53,1.53,0,0,0-1.55.89v5.11H16.74V29.89h1.6l0,.84a1.9,1.9,0,0,1,1.69-1,1.66,1.66,0,0,1,.59.09Z"/><path class="cls-1" d="M24.14,34.16l-.74.77v2.44H21.72V26.76H23.4v6.12l.52-.66L26,29.89h2L25.23,33l3.07,4.36H26.36Z"/><path class="cls-2" d="M10.66.88S6,3.76,6,8.27A9.18,9.18,0,0,0,15.14,17c5.08,0,7.92-5.69,7.92-5.69s-7.66,1.74-10.55-1.15S10.66.88,10.66.88Z"/></g></g></svg>