<svg xmlns="http://www.w3.org/2000/svg" xmlns:xlink="http://www.w3.org/1999/xlink" viewBox="0 0 70.19 54.94"><defs><style>.cls-1{fill:#091011;}.cls-2{fill:#fff;}.cls-10,.cls-3,.cls-4,.cls-5,.cls-6,.cls-7,.cls-8,.cls-9{fill:none;stroke-miterlimit:10;stroke-width:1.91px;}.cls-3{stroke:url(#Gradiente_sem_nome_45);}.cls-4{stroke:url(#Gradiente_sem_nome_45-2);}.cls-5{stroke:url(#Gradiente_sem_nome_45-3);}.cls-6{stroke:url(#Gradiente_sem_nome_45-4);}.cls-7{stroke:url(#Gradiente_sem_nome_45-5);}.cls-8{stroke:url(#Gradiente_sem_nome_45-6);}.cls-9{stroke:url(#Gradiente_sem_nome_45-7);}.cls-10{stroke:url(#Gradiente_sem_nome_45-8);}</style><linearGradient id="Gradiente_sem_nome_45" x1="34.92" y1="10.34" x2="36.84" y2="10.34" gradientUnits="userSpaceOnUse"><stop offset="0" stop-color="#87eb8f"/><stop offset="1" stop-color="#5d9ef0"/></linearGradient><linearGradient id="Gradiente_sem_nome_45-2" x1="34.92" y1="26.05" x2="36.84" y2="26.05" xlink:href="#Gradiente_sem_nome_45"/><linearGradient id="Gradiente_sem_nome_45-3" x1="8714.74" y1="-6192.18" x2="8716.66" y2="-6192.18" gradientTransform="translate(6220.21 8733.9) rotate(-90)" xlink:href="#Gradiente_sem_nome_45"/><linearGradient id="Gradiente_sem_nome_45-4" x1="8714.74" y1="-6176.47" x2="8716.66" y2="-6176.47" gradientTransform="translate(6220.21 8733.9) rotate(-90)" xlink:href="#Gradiente_sem_nome_45"/><linearGradient id="Gradiente_sem_nome_45-5" x1="13613.66" y1="-3136.86" x2="13615.57" y2="-3136.86" gradientTransform="translate(11875.4 7432.65) rotate(-135)" xlink:href="#Gradiente_sem_nome_45"/><linearGradient id="Gradiente_sem_nome_45-6" x1="13613.66" y1="-3121.14" x2="13615.57" y2="-3121.14" gradientTransform="translate(11875.4 7432.65) rotate(-135)" xlink:href="#Gradiente_sem_nome_45"/><linearGradient id="Gradiente_sem_nome_45-7" x1="11861.94" y1="7386.55" x2="11863.86" y2="7386.55" gradientTransform="translate(13652.85 -3141.5) rotate(135)" xlink:href="#Gradiente_sem_nome_45"/><linearGradient id="Gradiente_sem_nome_45-8" x1="11861.94" y1="7402.26" x2="11863.86" y2="7402.26" gradientTransform="translate(13652.85 -3141.5) rotate(135)" xlink:href="#Gradiente_sem_nome_45"/></defs><title>ICO_LIGHT_MODE</title><g id="Camada_2" data-name="Camada 2"><g id="Layer_10" data-name="Layer 10"><rect class="cls-1" width="70.19" height="54.94" rx="8.41"/><path class="cls-2" d="M22,41.19h4.57v1.39H20.27V32.52H22Z"/><path class="cls-2" d="M27.77,33.16a.87.87,0,0,1,.25-.64.91.91,0,0,1,.7-.25.92.92,0,0,1,.7.25.87.87,0,0,1,.25.64.86.86,0,0,1-.25.64,1,1,0,0,1-.7.25,1,1,0,0,1-.7-.25A.86.86,0,0,1,27.77,33.16Zm1.78,9.42H27.87V35.1h1.68Z"/><path class="cls-2" d="M31.09,38.79A4.34,4.34,0,0,1,31.91,36a2.6,2.6,0,0,1,2.17-1,2.45,2.45,0,0,1,2,.89l.08-.76h1.51v7.25a3,3,0,0,1-.92,2.33,3.51,3.51,0,0,1-2.47.84,3.93,3.93,0,0,1-1.6-.34,2.71,2.71,0,0,1-1.19-.89l.79-1a2.41,2.41,0,0,0,1.91.92,1.89,1.89,0,0,0,1.32-.45A1.76,1.76,0,0,0,36,42.42v-.51a2.46,2.46,0,0,1-1.93.81,2.64,2.64,0,0,1-2.15-1A4.56,4.56,0,0,1,31.09,38.79Zm1.67.14a3,3,0,0,0,.46,1.78,1.47,1.47,0,0,0,1.27.64A1.62,1.62,0,0,0,36,40.48V37.19a1.6,1.6,0,0,0-1.49-.85,1.49,1.49,0,0,0-1.29.66A3.33,3.33,0,0,0,32.76,38.93Z"/><path class="cls-2" d="M41.06,35.92a2.61,2.61,0,0,1,2.08-1c1.59,0,2.4.91,2.42,2.73v4.88H43.88V37.76a1.51,1.51,0,0,0-.33-1.1,1.39,1.39,0,0,0-1-.32,1.61,1.61,0,0,0-1.5.9v5.34H39.38V32h1.68Z"/><path class="cls-2" d="M49.36,33.29V35.1h1.32v1.25H49.36v4.17a.94.94,0,0,0,.17.62.8.8,0,0,0,.61.19,2.44,2.44,0,0,0,.59-.07v1.3a4.08,4.08,0,0,1-1.11.16c-1.29,0-1.94-.71-1.94-2.14V36.35H46.45V35.1h1.23V33.29Z"/><circle class="cls-2" cx="36.05" cy="18.28" r="5.13"/><line class="cls-3" x1="35.88" y1="8.61" x2="35.88" y2="12.08"/><line class="cls-4" x1="35.88" y1="24.32" x2="35.88" y2="27.79"/><line class="cls-5" x1="26.29" y1="18.2" x2="29.76" y2="18.2"/><line class="cls-6" x1="42" y1="18.2" x2="45.47" y2="18.2"/><line class="cls-7" x1="29.1" y1="24.98" x2="31.55" y2="22.53"/><line class="cls-8" x1="40.21" y1="13.87" x2="42.66" y2="11.42"/><line class="cls-9" x1="42.66" y1="24.98" x2="40.21" y2="22.53"/><line class="cls-10" x1="31.55" y1="13.87" x2="29.1" y2="11.42"/></g></g></svg>