<?xml version="1.0" encoding="utf-8"?>
<!-- Generator: Adobe Illustrator 24.0.2, SVG Export Plug-In . SVG Version: 6.00 Build 0)  -->
<svg version="1.1" id="Camada_1" xmlns="http://www.w3.org/2000/svg" xmlns:xlink="http://www.w3.org/1999/xlink" x="0px" y="0px"
	 viewBox="0 0 24 24" style="enable-background:new 0 0 24 24;" xml:space="preserve">
<style type="text/css">
	.st0{fill:#202020;}
	.st1{fill:#FFFFFF;}
	.st2{fill:none;stroke:url(#SVGID_1_);stroke-width:2.421;stroke-miterlimit:10;}
	.st3{fill:none;stroke:url(#SVGID_2_);stroke-width:2.421;stroke-miterlimit:10;}
	.st4{fill:none;stroke:url(#SVGID_3_);stroke-width:2.421;stroke-miterlimit:10;}
	.st5{fill:none;stroke:url(#SVGID_4_);stroke-width:2.421;stroke-miterlimit:10;}
	.st6{fill:none;stroke:url(#SVGID_5_);stroke-width:2.421;stroke-miterlimit:10;}
	.st7{fill:none;stroke:url(#SVGID_6_);stroke-width:2.421;stroke-miterlimit:10;}
	.st8{fill:none;stroke:url(#SVGID_7_);stroke-width:2.421;stroke-miterlimit:10;}
	.st9{fill:none;stroke:url(#SVGID_8_);stroke-width:2.421;stroke-miterlimit:10;}
</style>
<g>
	<path class="st0" d="M411.32,338.49h5.55c0.84,0,1.51,0.68,1.51,1.51v5.55c0,0.84-0.68,1.51-1.51,1.51h-5.55
		c-0.84,0-1.51-0.68-1.51-1.51V340C409.8,339.16,410.48,338.49,411.32,338.49z"/>
	<path class="st0" d="M431.58,341.73l-3.81-3.81c-0.58-0.58-1.52-0.58-2.1,0l-3.81,3.81c-0.58,0.58-0.58,1.52,0,2.1l3.81,3.81
		c0.58,0.58,1.52,0.58,2.1,0l3.81-3.81C432.16,343.25,432.16,342.31,431.58,341.73z"/>
	<path class="st0" d="M423.94,351.1h5.55c0.84,0,1.51,0.68,1.51,1.51v5.55c0,0.84-0.68,1.51-1.51,1.51h-5.55
		c-0.84,0-1.51-0.68-1.51-1.51v-5.55C422.42,351.78,423.1,351.1,423.94,351.1z"/>
	<path class="st0" d="M411.32,351.1h5.55c0.84,0,1.51,0.68,1.51,1.51v5.55c0,0.84-0.68,1.51-1.51,1.51h-5.55
		c-0.84,0-1.51-0.68-1.51-1.51v-5.55C409.8,351.78,410.48,351.1,411.32,351.1z"/>
</g>
<g>
	<circle class="st1" cx="12.09" cy="11.98" r="6.49"/>
	<g>
		<linearGradient id="SVGID_1_" gradientUnits="userSpaceOnUse" x1="10.6648" y1="2.0678" x2="13.0858" y2="2.0678">
			<stop  offset="0" style="stop-color:#1DEB8A"/>
			<stop  offset="1" style="stop-color:#1E9EF2"/>
		</linearGradient>
		<line class="st2" x1="11.88" y1="0" x2="11.88" y2="4.14"/>
		<linearGradient id="SVGID_2_" gradientUnits="userSpaceOnUse" x1="10.6648" y1="21.8075" x2="13.0858" y2="21.8075">
			<stop  offset="0" style="stop-color:#1DEB8A"/>
			<stop  offset="1" style="stop-color:#1E9EF2"/>
		</linearGradient>
		<line class="st3" x1="11.88" y1="19.61" x2="11.88" y2="24"/>
		
			<linearGradient id="SVGID_3_" gradientUnits="userSpaceOnUse" x1="2486.7817" y1="-7279.4761" x2="2489.2029" y2="-7279.4761" gradientTransform="matrix(0 -1 1 0 7281.5439 2499.8677)">
			<stop  offset="0" style="stop-color:#1DEB8A"/>
			<stop  offset="1" style="stop-color:#1E9EF2"/>
		</linearGradient>
		<line class="st4" x1="0" y1="11.88" x2="4.14" y2="11.88"/>
		
			<linearGradient id="SVGID_4_" gradientUnits="userSpaceOnUse" x1="2486.7817" y1="-7259.7368" x2="2489.2029" y2="-7259.7368" gradientTransform="matrix(0 -1 1 0 7281.5439 2499.8677)">
			<stop  offset="0" style="stop-color:#1DEB8A"/>
			<stop  offset="1" style="stop-color:#1E9EF2"/>
		</linearGradient>
		<line class="st5" x1="19.61" y1="11.88" x2="24" y2="11.88"/>
		
			<linearGradient id="SVGID_5_" gradientUnits="userSpaceOnUse" x1="6640.3745" y1="-7549.5996" x2="6642.7954" y2="-7549.5996" gradientTransform="matrix(-0.7071 -0.7071 0.7071 -0.7071 10039.5352 -623.1649)">
			<stop  offset="0" style="stop-color:#1DEB8A"/>
			<stop  offset="1" style="stop-color:#1E9EF2"/>
		</linearGradient>
		<line class="st6" x1="3.3" y1="20.45" x2="6.4" y2="17.35"/>
		
			<linearGradient id="SVGID_6_" gradientUnits="userSpaceOnUse" x1="6640.3745" y1="-7529.7354" x2="6642.7954" y2="-7529.7354" gradientTransform="matrix(-0.7071 -0.7071 0.7071 -0.7071 10039.5352 -623.1649)">
			<stop  offset="0" style="stop-color:#1DEB8A"/>
			<stop  offset="1" style="stop-color:#1E9EF2"/>
		</linearGradient>
		<line class="st7" x1="17.35" y1="6.4" x2="20.45" y2="3.3"/>
		
			<linearGradient id="SVGID_7_" gradientUnits="userSpaceOnUse" x1="10038.3242" y1="-649.8912" x2="10040.7451" y2="-649.8912" gradientTransform="matrix(-0.7071 0.7071 -0.7071 -0.7071 6658.3794 -7539.6675)">
			<stop  offset="0" style="stop-color:#1DEB8A"/>
			<stop  offset="1" style="stop-color:#1E9EF2"/>
		</linearGradient>
		<line class="st8" x1="20.45" y1="20.45" x2="17.35" y2="17.35"/>
		
			<linearGradient id="SVGID_8_" gradientUnits="userSpaceOnUse" x1="10038.3242" y1="-630.027" x2="10040.7451" y2="-630.027" gradientTransform="matrix(-0.7071 0.7071 -0.7071 -0.7071 6658.3794 -7539.6675)">
			<stop  offset="0" style="stop-color:#1DEB8A"/>
			<stop  offset="1" style="stop-color:#1E9EF2"/>
		</linearGradient>
		<line class="st9" x1="6.4" y1="6.4" x2="3.3" y2="3.3"/>
	</g>
</g>
</svg>
