<?xml version="1.0" encoding="utf-8"?>
<!-- Generator: Adobe Illustrator 24.0.2, SVG Export Plug-In . SVG Version: 6.00 Build 0)  -->
<svg version="1.1" id="Camada_1" xmlns="http://www.w3.org/2000/svg" xmlns:xlink="http://www.w3.org/1999/xlink" x="0px" y="0px"
	 viewBox="0 0 24 24" style="enable-background:new 0 0 24 24;" xml:space="preserve">
<style type="text/css">
	.st0{fill:#1bd4ad;}
</style>
<title>cogwheel</title>
<g>
	<path class="st0" d="M12.51,18.1c0-3.5,2.84-6.34,6.34-6.34c0.84,0,1.67,0.17,2.44,0.49V3.06c0-0.27-0.22-0.49-0.49-0.49
		c-0.13,0-0.25,0.05-0.34,0.14L1.47,19.71c-0.19,0.19-0.19,0.5,0,0.69c0.09,0.09,0.22,0.14,0.34,0.14H13
		C12.68,19.77,12.51,18.94,12.51,18.1z"/>
	<path class="st0" d="M23.5,17.37l-1.34-0.1c-0.08-0.33-0.21-0.64-0.38-0.93l0.88-1.02c0.08-0.1,0.08-0.24-0.01-0.33l-0.69-0.69
		c-0.09-0.09-0.23-0.1-0.33-0.01l-1.01,0.88c-0.29-0.17-0.6-0.3-0.93-0.38l-0.1-1.34c-0.01-0.13-0.12-0.22-0.24-0.22h-0.98
		c-0.13,0-0.23,0.1-0.24,0.23l-0.1,1.34c-0.33,0.08-0.64,0.21-0.93,0.38l-1.02-0.88c-0.1-0.08-0.24-0.08-0.33,0.01L15.06,15
		c-0.09,0.09-0.1,0.24-0.01,0.33l0.88,1.01c-0.17,0.29-0.3,0.6-0.38,0.93l-1.34,0.1c-0.13,0.01-0.23,0.12-0.22,0.24v0.98
		c0,0.13,0.1,0.23,0.23,0.24l1.34,0.1c0.08,0.33,0.21,0.64,0.38,0.93l-0.88,1.02c-0.08,0.1-0.08,0.24,0.01,0.33l0.69,0.69
		c0.09,0.09,0.23,0.1,0.33,0.01l1.01-0.88c0.29,0.17,0.6,0.3,0.93,0.38l0.1,1.34c0.01,0.13,0.12,0.23,0.24,0.22h0.98
		c0.13,0,0.23-0.1,0.24-0.23l0.1-1.34c0.33-0.08,0.64-0.21,0.93-0.38l1.02,0.88c0.1,0.08,0.24,0.08,0.33-0.01l0.69-0.69
		c0.09-0.09,0.1-0.23,0.01-0.33l-0.88-1.01c0.17-0.29,0.3-0.6,0.38-0.93l1.34-0.1c0.13-0.01,0.23-0.12,0.22-0.24v-0.98
		C23.73,17.49,23.63,17.38,23.5,17.37z M18.85,19.56c-0.81,0-1.46-0.65-1.46-1.46s0.65-1.46,1.46-1.46c0.81,0,1.46,0.65,1.46,1.46
		S19.66,19.56,18.85,19.56z"/>
</g>
</svg>
