<?xml version="1.0" encoding="utf-8"?>
<!-- Generator: Adobe Illustrator 24.0.2, SVG Export Plug-In . SVG Version: 6.00 Build 0)  -->
<svg version="1.1" id="Camada_1" xmlns="http://www.w3.org/2000/svg" xmlns:xlink="http://www.w3.org/1999/xlink" x="0px" y="0px"
	 viewBox="0 0 24 24" style="enable-background:new 0 0 24 24;" xml:space="preserve">
<style type="text/css">
	.st0{fill:#17c5c4;}
</style>
<g>
	<path class="st0" d="M12,15.71l3.88-1.94l-3.43-1.72c-0.28-0.14-0.61-0.14-0.89,0l-3.44,1.72L12,15.71z"/>
	<path class="st0" d="M13,17.45v5.38l3.45-1.72c0.34-0.17,0.55-0.52,0.55-0.89v-4.76L13,17.45z"/>
	<path class="st0" d="M11,17.45l-4-2v4.76c0,0.38,0.21,0.72,0.55,0.89L11,22.83V17.45z"/>
	<path class="st0" d="M6,4.97l3.88-1.94L6.45,1.32c-0.28-0.14-0.62-0.14-0.9,0L2.12,3.03L6,4.97z"/>
	<path class="st0" d="M7,6.71v5.38l3.45-1.72C10.79,10.2,11,9.85,11,9.47V4.71L7,6.71z"/>
	<path class="st0" d="M5,6.71l-4-2v4.76c0,0.38,0.21,0.72,0.55,0.89L5,12.09V6.71z"/>
	<path class="st0" d="M18,4.97l3.88-1.94l-3.43-1.72c-0.28-0.14-0.61-0.14-0.89,0l-3.44,1.72L18,4.97z"/>
	<path class="st0" d="M19,6.71v5.38l3.45-1.72C22.79,10.2,23,9.85,23,9.47V4.71L19,6.71z"/>
	<path class="st0" d="M17,6.71l-4-2v4.76c0,0.38,0.21,0.72,0.55,0.89L17,12.09V6.71z"/>
</g>
</svg>
