<?xml version="1.0" encoding="utf-8"?>
<!-- Generator: Adobe Illustrator 24.0.2, SVG Export Plug-In . SVG Version: 6.00 Build 0)  -->
<svg version="1.1" id="Camada_1" xmlns="http://www.w3.org/2000/svg" xmlns:xlink="http://www.w3.org/1999/xlink" x="0px" y="0px"
	 viewBox="0 0 24 24" style="enable-background:new 0 0 24 24;" xml:space="preserve">
<style type="text/css">
	.st0{fill:#f2f2f2;}
</style>
<title>cogwheel</title>
<g>
	<path class="st0" d="M4.46,20.42l-4.38-5.11l1.83-2l3.83,3.01L16.91,4.32l2,1L7.58,20.33c-0.67,0.88-1.92,1.06-2.8,0.39
		C4.66,20.63,4.56,20.53,4.46,20.42z"/>
	<path class="st0" d="M22.91,10.32h-3c-0.55,0-1-0.45-1-1s0.45-1,1-1h3c0.55,0,1,0.45,1,1S23.47,10.32,22.91,10.32z"/>
	<path class="st0" d="M22.91,15.32h-7c-0.55,0-1-0.45-1-1s0.45-1,1-1h7c0.55,0,1,0.45,1,1S23.47,15.32,22.91,15.32z"/>
	<path class="st0" d="M22.91,20.32h-10c-0.55,0-1-0.45-1-1s0.45-1,1-1h10c0.55,0,1,0.45,1,1S23.47,20.32,22.91,20.32z"/>
</g>
</svg>
