<?xml version="1.0" encoding="utf-8"?>
<!-- Generator: Adobe Illustrator 24.0.2, SVG Export Plug-In . SVG Version: 6.00 Build 0)  -->
<svg version="1.1" id="Camada_1" xmlns="http://www.w3.org/2000/svg" xmlns:xlink="http://www.w3.org/1999/xlink" x="0px" y="0px"
	 viewBox="0 0 24 24" style="enable-background:new 0 0 24 24;" xml:space="preserve">
<style type="text/css">
	.st0{fill:#17c5c4;}
</style>
<g>
	<path class="st0" d="M411.32,338.49h5.55c0.84,0,1.51,0.68,1.51,1.51v5.55c0,0.84-0.68,1.51-1.51,1.51h-5.55
		c-0.84,0-1.51-0.68-1.51-1.51V340C409.8,339.16,410.48,338.49,411.32,338.49z"/>
	<path class="st0" d="M431.58,341.73l-3.81-3.81c-0.58-0.58-1.52-0.58-2.1,0l-3.81,3.81c-0.58,0.58-0.58,1.52,0,2.1l3.81,3.81
		c0.58,0.58,1.52,0.58,2.1,0l3.81-3.81C432.16,343.25,432.16,342.31,431.58,341.73z"/>
	<path class="st0" d="M423.94,351.1h5.55c0.84,0,1.51,0.68,1.51,1.51v5.55c0,0.84-0.68,1.51-1.51,1.51h-5.55
		c-0.84,0-1.51-0.68-1.51-1.51v-5.55C422.42,351.78,423.1,351.1,423.94,351.1z"/>
	<path class="st0" d="M411.32,351.1h5.55c0.84,0,1.51,0.68,1.51,1.51v5.55c0,0.84-0.68,1.51-1.51,1.51h-5.55
		c-0.84,0-1.51-0.68-1.51-1.51v-5.55C409.8,351.78,410.48,351.1,411.32,351.1z"/>
</g>
<g>
	<path class="st0" d="M2.34,1.98h5.55c0.84,0,1.51,0.68,1.51,1.51v5.55c0,0.84-0.68,1.51-1.51,1.51H2.34
		c-0.84,0-1.51-0.68-1.51-1.51V3.49C0.82,2.65,1.5,1.98,2.34,1.98z"/>
	<path class="st0" d="M22.6,5.22L18.78,1.4c-0.58-0.58-1.52-0.58-2.1,0l-3.81,3.81c-0.58,0.58-0.58,1.52,0,2.1l3.81,3.81
		c0.58,0.58,1.52,0.58,2.1,0l3.81-3.81C23.18,6.74,23.18,5.8,22.6,5.22z"/>
	<path class="st0" d="M14.96,14.6h5.55c0.84,0,1.51,0.68,1.51,1.51v5.55c0,0.84-0.68,1.51-1.51,1.51h-5.55
		c-0.84,0-1.51-0.68-1.51-1.51v-5.55C13.44,15.27,14.12,14.6,14.96,14.6z"/>
	<path class="st0" d="M2.34,14.6h5.55c0.84,0,1.51,0.68,1.51,1.51v5.55c0,0.84-0.68,1.51-1.51,1.51H2.34
		c-0.84,0-1.51-0.68-1.51-1.51v-5.55C0.82,15.27,1.5,14.6,2.34,14.6z"/>
</g>
</svg>
