<?xml version="1.0" encoding="utf-8"?>
<!-- Generator: Adobe Illustrator 24.0.2, SVG Export Plug-In . SVG Version: 6.00 Build 0)  -->
<svg version="1.1" id="Camada_1" xmlns="http://www.w3.org/2000/svg" xmlns:xlink="http://www.w3.org/1999/xlink" x="0px" y="0px"
	 viewBox="0 0 24 24" style="enable-background:new 0 0 24 24;" xml:space="preserve">
<style type="text/css">
	.st0{fill:#f2f2f2;}
</style>
<g>
	<path class="st0" d="M14.44,13.46h6.82c0.27,0,0.49,0.22,0.49,0.49v4.87c0,0.27-0.22,0.49-0.49,0.49h-6.82
		c-0.27,0-0.49-0.22-0.49-0.49v-4.87C13.95,13.68,14.17,13.46,14.44,13.46z"/>
	<path class="st0" d="M21.57,7.73l-2.75-2.36V1.28c0-0.27-0.22-0.49-0.49-0.49h-0.97c-0.27,0-0.49,0.22-0.49,0.49v4.09l-2.75,2.36
		c-0.11,0.09-0.17,0.23-0.17,0.37v2.44c0,0.27,0.22,0.49,0.49,0.49c0.27,0,0.49-0.22,0.49-0.49V8.33l2.92-2.51l2.92,2.51v2.21
		c0,0.27,0.22,0.49,0.49,0.49c0.27,0,0.49-0.22,0.49-0.49V8.1C21.74,7.96,21.68,7.83,21.57,7.73z"/>
	<path class="st0" d="M11.51,9.56H2.74c-0.27,0-0.49,0.22-0.49,0.49v8.77c0,0.27,0.22,0.49,0.49,0.49h8.77
		c0.27,0,0.49-0.22,0.49-0.49v-8.77C12,9.78,11.78,9.56,11.51,9.56z M8.59,12.49H5.67c-0.27,0-0.49-0.22-0.49-0.49
		s0.22-0.49,0.49-0.49h2.92c0.27,0,0.49,0.22,0.49,0.49S8.86,12.49,8.59,12.49z"/>
	<path class="st0" d="M21.74,20.28H2.26c-0.81,0-1.46,0.65-1.46,1.46s0.65,1.46,1.46,1.46h19.49c0.81,0,1.46-0.65,1.46-1.46
		S22.55,20.28,21.74,20.28z"/>
</g>
</svg>
