<?xml version="1.0" encoding="utf-8"?>
<!-- Generator: Adobe Illustrator 24.0.2, SVG Export Plug-In . SVG Version: 6.00 Build 0)  -->
<svg version="1.1" id="Camada_1" xmlns="http://www.w3.org/2000/svg" xmlns:xlink="http://www.w3.org/1999/xlink" x="0px" y="0px"
	 viewBox="0 0 24 24" style="enable-background:new 0 0 24 24;" xml:space="preserve">
<style type="text/css">
	.st0{fill:#202020;}
	.st1{fill:none;stroke:url(#SVGID_1_);stroke-width:2.2177;stroke-linecap:round;stroke-linejoin:round;stroke-miterlimit:10;}
</style>
<g>
	<path class="st0" d="M411.32,338.49h5.55c0.84,0,1.51,0.68,1.51,1.51v5.55c0,0.84-0.68,1.51-1.51,1.51h-5.55
		c-0.84,0-1.51-0.68-1.51-1.51V340C409.8,339.16,410.48,338.49,411.32,338.49z"/>
	<path class="st0" d="M431.58,341.73l-3.81-3.81c-0.58-0.58-1.52-0.58-2.1,0l-3.81,3.81c-0.58,0.58-0.58,1.52,0,2.1l3.81,3.81
		c0.58,0.58,1.52,0.58,2.1,0l3.81-3.81C432.16,343.25,432.16,342.31,431.58,341.73z"/>
	<path class="st0" d="M423.94,351.1h5.55c0.84,0,1.51,0.68,1.51,1.51v5.55c0,0.84-0.68,1.51-1.51,1.51h-5.55
		c-0.84,0-1.51-0.68-1.51-1.51v-5.55C422.42,351.78,423.1,351.1,423.94,351.1z"/>
	<path class="st0" d="M411.32,351.1h5.55c0.84,0,1.51,0.68,1.51,1.51v5.55c0,0.84-0.68,1.51-1.51,1.51h-5.55
		c-0.84,0-1.51-0.68-1.51-1.51v-5.55C409.8,351.78,410.48,351.1,411.32,351.1z"/>
</g>
<linearGradient id="SVGID_1_" gradientUnits="userSpaceOnUse" x1="0.2679" y1="12.1153" x2="23.9765" y2="12.1153">
	<stop  offset="0" style="stop-color:#1DEB8A"/>
	<stop  offset="1" style="stop-color:#1E9EF2"/>
</linearGradient>
<path class="st1" d="M7.28,1.97c0,0-5.9,3.62-5.9,9.28s5.14,11.01,11.53,11.01s9.96-7.15,9.96-7.15s-9.62,2.19-13.26-1.45
	C5.84,9.89,7.28,1.97,7.28,1.97z"/>
</svg>
