<svg xmlns="http://www.w3.org/2000/svg" xmlns:xlink="http://www.w3.org/1999/xlink" viewBox="0 0 469.42 469.42"><defs><style>.cls-1{fill:url(#Gradiente_sem_nome_5);}.cls-2{fill:url(#Gradiente_sem_nome_5-2);}</style><linearGradient id="Gradiente_sem_nome_5" y1="234.71" x2="469.42" y2="234.71" gradientUnits="userSpaceOnUse"><stop offset="0" stop-color="#1599b0"/><stop offset="1" stop-color="#85bf5b"/></linearGradient><linearGradient id="Gradiente_sem_nome_5-2" x1="149.43" y1="234.71" x2="365.29" y2="234.71" xlink:href="#Gradiente_sem_nome_5"/></defs><title>Circles</title><g id="Camada_2" data-name="Camada 2"><g id="Camada_1-2" data-name="Camada 1"><path class="cls-1" d="M234.71,0C105.08,0,0,105.08,0,234.71S105.08,469.42,234.71,469.42,469.42,364.33,469.42,234.71,364.33,0,234.71,0Zm0,417c-100.66,0-182.26-81.6-182.26-182.25A182.26,182.26,0,0,1,234.71,52.45C335.36,52.45,417,134.05,417,234.71A182.25,182.25,0,0,1,234.71,417Z"/><path class="cls-2" d="M257.36,126.78A107.93,107.93,0,1,0,365.29,234.71,107.93,107.93,0,0,0,257.36,126.78Zm0,191.74a83.81,83.81,0,1,1,83.81-83.81A83.81,83.81,0,0,1,257.36,318.52Z"/></g></g></svg>