<svg xmlns="http://www.w3.org/2000/svg" xmlns:xlink="http://www.w3.org/1999/xlink" viewBox="0 0 400.16 67.01"><defs><style>.cls-1{fill:url(#Gradiente_sem_nome_3);}.cls-2{fill:#fff;}</style><linearGradient id="Gradiente_sem_nome_3" x1="-102.96" y1="33.51" x2="460.42" y2="33.51" gradientUnits="userSpaceOnUse"><stop offset="0" stop-color="#ffef26"/><stop offset="0" stop-color="#ffea21"/><stop offset="0.02" stop-color="#fed70f"/><stop offset="0.04" stop-color="#fdcc04"/><stop offset="0.05" stop-color="#fdc800"/><stop offset="0.77" stop-color="#f18f34"/><stop offset="0.98" stop-color="#e95f32"/></linearGradient></defs><title>B T_PLAY_VIDEO2</title><g id="Camada_2" data-name="Camada 2"><g id="Camada_1-2" data-name="Camada 1"><rect class="cls-1" width="400.16" height="67.01" rx="18.5"/><path class="cls-2" d="M83.45,28.64a7.91,7.91,0,0,1-2.33,6.1,9.41,9.41,0,0,1-6.61,2.15H72.72V44.7H66.35V21.15h8.16c3,0,5.21.65,6.7,2A7,7,0,0,1,83.45,28.64ZM72.72,31.7h1.16a3.22,3.22,0,0,0,2.28-.8A3,3,0,0,0,77,28.67c0-1.59-.88-2.38-2.64-2.38H72.72Z"/><path class="cls-2" d="M94.45,44.7h-6.3V19.63h6.3Z"/><path class="cls-2" d="M112.05,44.7l-1.21-2.41h-.13a7.19,7.19,0,0,1-2.6,2.16,8.64,8.64,0,0,1-3.41.58,5.36,5.36,0,0,1-4.06-1.55,6,6,0,0,1-1.48-4.35,4.92,4.92,0,0,1,2-4.34,11.1,11.1,0,0,1,5.88-1.61l3-.09v-.26a2,2,0,0,0-2.22-2.26,13.25,13.25,0,0,0-5.08,1.36L101,27.77a17.5,17.5,0,0,1,8.06-1.64,7.85,7.85,0,0,1,5.44,1.74,6.22,6.22,0,0,1,1.92,4.86v12Zm-4.68-4.12a2.8,2.8,0,0,0,2-.73,2.41,2.41,0,0,0,.82-1.88V36.55l-1.46.07c-2.07.07-3.1.83-3.1,2.28C105.59,40,106.18,40.58,107.37,40.58Z"/><path class="cls-2" d="M119.81,26.45h6.64l3.09,10.47a10,10,0,0,1,.31,2H130a9.88,9.88,0,0,1,.39-1.95l3.17-10.5H140l-7.22,19.41a11.38,11.38,0,0,1-3.41,5.24,8.5,8.5,0,0,1-5.27,1.53,12.86,12.86,0,0,1-2.58-.27v-5a8.83,8.83,0,0,0,2,.19,3.08,3.08,0,0,0,1.46-.32,3.29,3.29,0,0,0,1.1-.91,8.19,8.19,0,0,0,1-1.92Z"/><path class="cls-2" d="M167,21.15h7.12L166.36,44.7h-7.49l-7.69-23.55h7.16l3.2,11.94a36.77,36.77,0,0,1,1.1,5.54,27.42,27.42,0,0,1,.45-2.82c.22-1.13.42-2,.6-2.66Z"/><path class="cls-2" d="M177.44,21.9a2.69,2.69,0,0,1,.79-2.11,5,5,0,0,1,5.11,0,2.63,2.63,0,0,1,.81,2.09q0,2.78-3.37,2.78C178.56,24.68,177.44,23.75,177.44,21.9Zm6.47,22.8h-6.3V26.45h6.3Z"/><path class="cls-2" d="M195.3,45a5.47,5.47,0,0,1-3.41-1.11,7.21,7.21,0,0,1-2.26-3.28,14.57,14.57,0,0,1-.79-5,11.87,11.87,0,0,1,1.78-7,5.72,5.72,0,0,1,4.92-2.51,5.61,5.61,0,0,1,2.68.61,5.86,5.86,0,0,1,2.1,2.06h.13a30.94,30.94,0,0,1-.3-4.29V19.63h6.35V44.7h-4.76l-1.35-2.3h-.24A5.35,5.35,0,0,1,195.3,45Zm2.58-5A2.35,2.35,0,0,0,200,39.1a5.76,5.76,0,0,0,.67-2.94v-.49a6.44,6.44,0,0,0-.69-3.45,2.46,2.46,0,0,0-2.18-1,2.11,2.11,0,0,0-1.92,1.17,6.61,6.61,0,0,0-.69,3.33,6.22,6.22,0,0,0,.69,3.24A2.23,2.23,0,0,0,197.88,40.05Z"/><path class="cls-2" d="M221,45a9.78,9.78,0,0,1-7.08-2.43,9.12,9.12,0,0,1-2.52-6.9c0-3.09.78-5.45,2.33-7.1a8.73,8.73,0,0,1,6.67-2.47,8.85,8.85,0,0,1,6.38,2.15A8.16,8.16,0,0,1,229,34.47v2.81H217.74a3.13,3.13,0,0,0,1.12,2.4,4.38,4.38,0,0,0,2.88.87,13.86,13.86,0,0,0,3-.32,14.7,14.7,0,0,0,3-1.07v4.53a11.56,11.56,0,0,1-3.06,1.05A21.49,21.49,0,0,1,221,45Zm-.37-14.62a2.65,2.65,0,0,0-1.86.7,3.31,3.31,0,0,0-.88,2.2h5.41a3.17,3.17,0,0,0-.74-2.11A2.47,2.47,0,0,0,220.61,30.41Z"/><path class="cls-2" d="M251.32,35.54a9.64,9.64,0,0,1-2.41,7A8.9,8.9,0,0,1,242.17,45a8.75,8.75,0,0,1-6.62-2.57,9.59,9.59,0,0,1-2.45-6.92,9.51,9.51,0,0,1,2.41-6.94,9,9,0,0,1,6.76-2.47A9.68,9.68,0,0,1,247,27.27a7.86,7.86,0,0,1,3.18,3.28A10.53,10.53,0,0,1,251.32,35.54Zm-11.83,0a8.08,8.08,0,0,0,.63,3.58,2.18,2.18,0,0,0,2.11,1.23,2.12,2.12,0,0,0,2.07-1.23,8.27,8.27,0,0,0,.61-3.58A8.08,8.08,0,0,0,244.3,32a2.43,2.43,0,0,0-4.18,0A7.78,7.78,0,0,0,239.49,35.54Z"/><path class="cls-2" d="M286.49,32.43q0,5.9-3.24,9.08t-9.13,3.19H266.5V21.15h8.15c3.78,0,6.7,1,8.76,2.9S286.49,28.77,286.49,32.43Zm-6.6.22a7.5,7.5,0,0,0-1.28-4.8,4.77,4.77,0,0,0-3.9-1.56h-1.85V39.48h1.42a5.13,5.13,0,0,0,4.25-1.68A8.09,8.09,0,0,0,279.89,32.65Z"/><path class="cls-2" d="M300.48,45a9.78,9.78,0,0,1-7.08-2.43,9.13,9.13,0,0,1-2.53-6.9c0-3.09.78-5.45,2.34-7.1a10.37,10.37,0,0,1,13-.32,8.16,8.16,0,0,1,2.25,6.19v2.81H297.24a3.13,3.13,0,0,0,1.12,2.4,4.38,4.38,0,0,0,2.88.87,13.86,13.86,0,0,0,3.05-.32,14.7,14.7,0,0,0,3-1.07v4.53a11.56,11.56,0,0,1-3.06,1.05A21.49,21.49,0,0,1,300.48,45Zm-.37-14.62a2.65,2.65,0,0,0-1.86.7,3.27,3.27,0,0,0-.88,2.2h5.41A3.13,3.13,0,0,0,302,31.2,2.45,2.45,0,0,0,300.11,30.41Z"/><path class="cls-2" d="M335.8,44.7V34.78a5.93,5.93,0,0,0-.51-2.78,1.7,1.7,0,0,0-1.6-.93,2.27,2.27,0,0,0-2.13,1.24,8.49,8.49,0,0,0-.68,3.89v8.5h-6.31V34.78a6.09,6.09,0,0,0-.49-2.78,1.63,1.63,0,0,0-1.56-.93,2.26,2.26,0,0,0-2.16,1.32,10.1,10.1,0,0,0-.68,4.32v8h-6.3V26.45h4.76l.79,2.25h.37a4.7,4.7,0,0,1,2.1-1.91,7.16,7.16,0,0,1,3.13-.66c2.64,0,4.48.8,5.55,2.4h.5a5.11,5.11,0,0,1,2.15-1.77,7.22,7.22,0,0,1,3-.63,6.23,6.23,0,0,1,4.78,1.66,7.16,7.16,0,0,1,1.55,5V44.7Z"/><path class="cls-2" d="M365.14,35.54a9.64,9.64,0,0,1-2.41,7A8.92,8.92,0,0,1,356,45a8.74,8.74,0,0,1-6.62-2.57,9.55,9.55,0,0,1-2.46-6.92,9.55,9.55,0,0,1,2.41-6.94,9,9,0,0,1,6.76-2.47,9.69,9.69,0,0,1,4.76,1.14A7.86,7.86,0,0,1,364,30.55,10.53,10.53,0,0,1,365.14,35.54Zm-11.83,0a8.08,8.08,0,0,0,.63,3.58,2.18,2.18,0,0,0,2.11,1.23,2.12,2.12,0,0,0,2.07-1.23,8.42,8.42,0,0,0,.61-3.58,7.91,7.91,0,0,0-.62-3.53,2.15,2.15,0,0,0-2.09-1.2A2.17,2.17,0,0,0,353.94,32,7.78,7.78,0,0,0,353.31,35.54Z"/><polygon class="cls-2" points="26.18 20.01 26.18 47 47.36 33.51 26.18 20.01"/></g></g></svg>