<svg xmlns="http://www.w3.org/2000/svg" xmlns:xlink="http://www.w3.org/1999/xlink" viewBox="0 0 369.16 67.01"><defs><style>.cls-1{fill:url(#Gradiente_sem_nome_3);}.cls-2{fill:#fff;}</style><linearGradient id="Gradiente_sem_nome_3" x1="-94.99" y1="33.51" x2="424.75" y2="33.51" gradientUnits="userSpaceOnUse"><stop offset="0" stop-color="#ffef26"/><stop offset="0" stop-color="#ffea21"/><stop offset="0.02" stop-color="#fed70f"/><stop offset="0.04" stop-color="#fdcc04"/><stop offset="0.05" stop-color="#fdc800"/><stop offset="0.77" stop-color="#f18f34"/><stop offset="0.98" stop-color="#e95f32"/></linearGradient></defs><title>BT_ACCESS</title><g id="Camada_2" data-name="Camada 2"><g id="Camada_1-2" data-name="Camada 1"><rect class="cls-1" width="369.16" height="67.01" rx="18.5"/><path class="cls-2" d="M49.57,45.7l-1.16-4.41H40.76l-1.2,4.41h-7l7.69-23.65h8.49L56.53,45.7Zm-2.48-9.63-1-3.87c-.23-.86-.52-2-.86-3.33s-.56-2.35-.67-2.94c-.09.55-.28,1.45-.57,2.71s-.92,3.73-1.89,7.43Z"/><path class="cls-2" d="M68.34,46q-4.49,0-6.79-2.42C60,42,59.24,39.68,59.24,36.67a9.57,9.57,0,0,1,2.49-7q2.51-2.49,7.11-2.49a13.36,13.36,0,0,1,6,1.38L73,33.17a18.44,18.44,0,0,0-2.11-.8,6.7,6.7,0,0,0-2-.3,2.74,2.74,0,0,0-2.37,1.19,5.81,5.81,0,0,0-.84,3.37c0,2.92,1.08,4.39,3.24,4.39a9.77,9.77,0,0,0,5.32-1.62v5A10.38,10.38,0,0,1,68.34,46Z"/><path class="cls-2" d="M87.45,46Q83,46,80.66,43.61c-1.54-1.61-2.31-3.93-2.31-6.94a9.57,9.57,0,0,1,2.49-7q2.5-2.49,7.11-2.49a13.36,13.36,0,0,1,6,1.38l-1.86,4.66a18.44,18.44,0,0,0-2.11-.8,6.7,6.7,0,0,0-2-.3,2.74,2.74,0,0,0-2.37,1.19,5.81,5.81,0,0,0-.84,3.37C84.74,39.55,85.82,41,88,41A9.77,9.77,0,0,0,93.3,39.4v5A10.38,10.38,0,0,1,87.45,46Z"/><path class="cls-2" d="M107.06,46A9.78,9.78,0,0,1,100,43.6c-1.69-1.61-2.53-3.92-2.53-6.9s.78-5.45,2.34-7.1a8.73,8.73,0,0,1,6.67-2.47,8.8,8.8,0,0,1,6.37,2.15,8.16,8.16,0,0,1,2.25,6.19v2.81H103.82a3.13,3.13,0,0,0,1.12,2.4,4.38,4.38,0,0,0,2.88.87,13.86,13.86,0,0,0,3.05-.32,14.7,14.7,0,0,0,3-1.07v4.53a11.56,11.56,0,0,1-3.06,1.05A21.49,21.49,0,0,1,107.06,46Zm-.37-14.62a2.65,2.65,0,0,0-1.86.7,3.31,3.31,0,0,0-.88,2.2h5.41a3.13,3.13,0,0,0-.75-2.11A2.46,2.46,0,0,0,106.69,31.41Z"/><path class="cls-2" d="M134.06,40.1a5.18,5.18,0,0,1-2,4.43,9.4,9.4,0,0,1-5.73,1.5,25.61,25.61,0,0,1-3.53-.22,15,15,0,0,1-3.06-.8V40A19.18,19.18,0,0,0,123,41a13.58,13.58,0,0,0,3.12.42c1.37,0,2.05-.31,2.05-.93a1.06,1.06,0,0,0-.58-.87,26.77,26.77,0,0,0-3.32-1.47,8.31,8.31,0,0,1-3.52-2.35,5.35,5.35,0,0,1-1-3.32,4.62,4.62,0,0,1,2-4,9.44,9.44,0,0,1,5.56-1.41,14.19,14.19,0,0,1,3.39.39,20.34,20.34,0,0,1,3.3,1.15l-1.71,4.06a20.84,20.84,0,0,0-2.66-1,8.93,8.93,0,0,0-2.29-.39c-1,0-1.54.25-1.54.76a.93.93,0,0,0,.54.79,27.72,27.72,0,0,0,3.11,1.35,11.72,11.72,0,0,1,2.86,1.55,4.65,4.65,0,0,1,1.39,1.78A6.34,6.34,0,0,1,134.06,40.1Z"/><path class="cls-2" d="M153,40.1a5.2,5.2,0,0,1-2,4.43,9.41,9.41,0,0,1-5.74,1.5,25.45,25.45,0,0,1-3.52-.22,15.31,15.31,0,0,1-3.07-.8V40A19,19,0,0,0,141.87,41a13.45,13.45,0,0,0,3.12.42q2,0,2-.93a1.07,1.07,0,0,0-.57-.87,26.47,26.47,0,0,0-3.33-1.47,8.33,8.33,0,0,1-3.51-2.35,5.29,5.29,0,0,1-1-3.32,4.63,4.63,0,0,1,2-4,9.42,9.42,0,0,1,5.56-1.41,14.19,14.19,0,0,1,3.39.39,19.92,19.92,0,0,1,3.29,1.15l-1.7,4.06a21.41,21.41,0,0,0-2.66-1,9,9,0,0,0-2.29-.39c-1,0-1.55.25-1.55.76a.93.93,0,0,0,.54.79,27.34,27.34,0,0,0,3.12,1.35,11.91,11.91,0,0,1,2.86,1.55,4.65,4.65,0,0,1,1.39,1.78A6.34,6.34,0,0,1,153,40.1Z"/><path class="cls-2" d="M182,45.7h-14V22.15h14v5.1h-7.62V31h7.06v5.11h-7.06v4.45H182Z"/><path class="cls-2" d="M195.43,46c-3,0-5.25-.81-6.79-2.42s-2.31-3.93-2.31-6.94a9.53,9.53,0,0,1,2.5-7q2.49-2.49,7.1-2.49a13.36,13.36,0,0,1,6,1.38l-1.85,4.66a20,20,0,0,0-2.11-.8,6.81,6.81,0,0,0-2-.3,2.74,2.74,0,0,0-2.37,1.19,5.89,5.89,0,0,0-.83,3.37c0,2.92,1.08,4.39,3.23,4.39a9.75,9.75,0,0,0,5.32-1.62v5A10.38,10.38,0,0,1,195.43,46Z"/><path class="cls-2" d="M223.66,36.54a9.64,9.64,0,0,1-2.41,7A8.9,8.9,0,0,1,214.51,46a8.71,8.71,0,0,1-6.61-2.57,9.55,9.55,0,0,1-2.46-6.92,9.51,9.51,0,0,1,2.41-6.94,9,9,0,0,1,6.76-2.47,9.65,9.65,0,0,1,4.75,1.14,7.74,7.74,0,0,1,3.18,3.28A10.53,10.53,0,0,1,223.66,36.54Zm-11.82,0a8.1,8.1,0,0,0,.62,3.58,2.19,2.19,0,0,0,2.11,1.23,2.14,2.14,0,0,0,2.08-1.23,8.44,8.44,0,0,0,.6-3.58,8.08,8.08,0,0,0-.61-3.53,2.43,2.43,0,0,0-4.18,0A7.79,7.79,0,0,0,211.84,36.54Z"/><path class="cls-2" d="M239.73,32.17h-3.89V45.7h-6.3V32.17h-2.41V29.08l2.54-1.55v-.31q0-3.6,1.48-5.19t4.72-1.57a13.83,13.83,0,0,1,2.38.19,17.72,17.72,0,0,1,2.6.68L239.5,25.4a8.63,8.63,0,0,0-2.27-.32,1.26,1.26,0,0,0-1.06.44,2.47,2.47,0,0,0-.33,1.44v.49h3.89Z"/><path class="cls-2" d="M255.44,45.7l-1.21-2.41h-.13a7.27,7.27,0,0,1-2.6,2.16,8.68,8.68,0,0,1-3.41.58A5.36,5.36,0,0,1,244,44.48a6,6,0,0,1-1.49-4.35,4.93,4.93,0,0,1,2-4.34,11.1,11.1,0,0,1,5.88-1.61l3-.09v-.26a2,2,0,0,0-2.22-2.26,13.21,13.21,0,0,0-5.08,1.36l-1.82-4.16a17.47,17.47,0,0,1,8.06-1.64,7.85,7.85,0,0,1,5.44,1.74,6.22,6.22,0,0,1,1.92,4.86v12Zm-4.68-4.12a2.8,2.8,0,0,0,2-.73,2.4,2.4,0,0,0,.81-1.88V37.55l-1.45.07c-2.07.07-3.11.83-3.11,2.28C249,41,249.57,41.58,250.76,41.58Z"/><path class="cls-2" d="M273.72,46c-3,0-5.25-.81-6.79-2.42s-2.31-3.93-2.31-6.94a9.53,9.53,0,0,1,2.5-7q2.49-2.49,7.1-2.49a13.36,13.36,0,0,1,6,1.38l-1.85,4.66a20,20,0,0,0-2.11-.8,6.81,6.81,0,0,0-2-.3,2.74,2.74,0,0,0-2.37,1.19,5.81,5.81,0,0,0-.83,3.37c0,2.92,1.08,4.39,3.23,4.39a9.77,9.77,0,0,0,5.32-1.62v5A10.38,10.38,0,0,1,273.72,46Z"/><path class="cls-2" d="M293.46,41.05a9.41,9.41,0,0,0,3.05-.63V45a11.75,11.75,0,0,1-2.43.78,13.4,13.4,0,0,1-2.7.24c-2.11,0-3.64-.52-4.57-1.56a6.93,6.93,0,0,1-1.41-4.78V32.17h-2.2V29.61l2.8-2,1.63-3.83h4.12v3.66h4.48v4.72h-4.48v7.11A1.54,1.54,0,0,0,293.46,41.05Z"/><path class="cls-2" d="M318.45,36.54a9.64,9.64,0,0,1-2.41,7A8.9,8.9,0,0,1,309.3,46a8.75,8.75,0,0,1-6.62-2.57,9.55,9.55,0,0,1-2.45-6.92,9.51,9.51,0,0,1,2.41-6.94,9,9,0,0,1,6.75-2.47,9.69,9.69,0,0,1,4.76,1.14,7.86,7.86,0,0,1,3.18,3.28A10.53,10.53,0,0,1,318.45,36.54Zm-11.83,0a8.08,8.08,0,0,0,.63,3.58,2.18,2.18,0,0,0,2.11,1.23,2.12,2.12,0,0,0,2.07-1.23,8.27,8.27,0,0,0,.61-3.58,8.08,8.08,0,0,0-.61-3.53,2.43,2.43,0,0,0-4.18,0A7.78,7.78,0,0,0,306.62,36.54Z"/><path class="cls-2" d="M334.38,27.13a9.9,9.9,0,0,1,1.57.12l.35.07-.56,5.94a9.85,9.85,0,0,0-2.14-.19,4.12,4.12,0,0,0-3,.94,3.73,3.73,0,0,0-.94,2.72v9h-6.3V27.45h4.69l1,2.91h.3a6.41,6.41,0,0,1,2.2-2.34A5.23,5.23,0,0,1,334.38,27.13Z"/></g></g></svg>