<svg xmlns="http://www.w3.org/2000/svg" xmlns:xlink="http://www.w3.org/1999/xlink" viewBox="0 0 274.16 67.01"><defs><style>.cls-1{fill:url(#Gradiente_sem_nome_3);}.cls-2{fill:#fff;}</style><linearGradient id="Gradiente_sem_nome_3" x1="-70.54" y1="33.51" x2="315.44" y2="33.51" gradientUnits="userSpaceOnUse"><stop offset="0" stop-color="#ffef26"/><stop offset="0" stop-color="#ffea21"/><stop offset="0.02" stop-color="#fed70f"/><stop offset="0.04" stop-color="#fdcc04"/><stop offset="0.05" stop-color="#fdc800"/><stop offset="0.77" stop-color="#f18f34"/><stop offset="0.98" stop-color="#e95f32"/></linearGradient></defs><title>BT_CONTACT</title><g id="Camada_2" data-name="Camada 2"><g id="Camada_1-2" data-name="Camada 1"><rect class="cls-1" width="274.16" height="67.01" rx="18.5"/><path class="cls-2" d="M52.55,27A4.06,4.06,0,0,0,49,28.89,9,9,0,0,0,47.73,34c0,4.54,1.72,6.8,5.17,6.8a10.62,10.62,0,0,0,3-.43,29.81,29.81,0,0,0,3-1v5.38A16.34,16.34,0,0,1,52.21,46c-3.56,0-6.28-1-8.18-3.1s-2.84-5-2.84-8.94a14.25,14.25,0,0,1,1.38-6.43,9.73,9.73,0,0,1,4-4.26,12,12,0,0,1,6.08-1.49,16.7,16.7,0,0,1,7.3,1.66l-1.95,5a21.72,21.72,0,0,0-2.61-1A9.07,9.07,0,0,0,52.55,27Z"/><path class="cls-2" d="M81.86,36.54a9.69,9.69,0,0,1-2.41,7A8.94,8.94,0,0,1,72.7,46a8.73,8.73,0,0,1-6.61-2.57,9.55,9.55,0,0,1-2.46-6.92A9.51,9.51,0,0,1,66,29.6a9,9,0,0,1,6.76-2.47,9.65,9.65,0,0,1,4.75,1.14,7.82,7.82,0,0,1,3.19,3.28A10.65,10.65,0,0,1,81.86,36.54ZM70,36.54a8.08,8.08,0,0,0,.63,3.58,2.18,2.18,0,0,0,2.11,1.23,2.12,2.12,0,0,0,2.07-1.23,8.44,8.44,0,0,0,.6-3.58A7.93,7.93,0,0,0,74.83,33a2.42,2.42,0,0,0-4.17,0A7.78,7.78,0,0,0,70,36.54Z"/><path class="cls-2" d="M98.29,45.7v-10A5.71,5.71,0,0,0,97.77,33a1.79,1.79,0,0,0-1.69-.93,2.43,2.43,0,0,0-2.3,1.28,9.63,9.63,0,0,0-.71,4.36v8h-6.3V27.45h4.75l.79,2.25h.37a5,5,0,0,1,2.23-1.93,7.93,7.93,0,0,1,3.28-.64,6.25,6.25,0,0,1,4.72,1.75,6.87,6.87,0,0,1,1.68,4.95V45.7Z"/><path class="cls-2" d="M119.14,41.05a9.31,9.31,0,0,0,3-.63V45a11.48,11.48,0,0,1-2.42.78,13.4,13.4,0,0,1-2.7.24c-2.12,0-3.64-.52-4.58-1.56a7,7,0,0,1-1.4-4.78V32.17h-2.21V29.61l2.81-2,1.63-3.83h4.12v3.66h4.48v4.72h-4.48v7.11A1.54,1.54,0,0,0,119.14,41.05Z"/><path class="cls-2" d="M138.6,45.7l-1.21-2.41h-.12a7.27,7.27,0,0,1-2.6,2.16,8.7,8.7,0,0,1-3.42.58,5.38,5.38,0,0,1-4.06-1.55,6.06,6.06,0,0,1-1.48-4.35,5,5,0,0,1,2-4.34,11.15,11.15,0,0,1,5.88-1.61l3-.09v-.26a2,2,0,0,0-2.22-2.26,13.16,13.16,0,0,0-5.08,1.36l-1.82-4.16a17.47,17.47,0,0,1,8.06-1.64A7.8,7.8,0,0,1,141,28.87,6.2,6.2,0,0,1,143,33.73v12Zm-4.67-4.12a2.84,2.84,0,0,0,2-.73A2.4,2.4,0,0,0,136.7,39V37.55l-1.45.07c-2.07.07-3.11.83-3.11,2.28C132.14,41,132.74,41.58,133.93,41.58Z"/><path class="cls-2" d="M156.89,46q-4.48,0-6.79-2.42t-2.31-7a9.56,9.56,0,0,1,2.49-7q2.5-2.49,7.11-2.49a13.36,13.36,0,0,1,6,1.38l-1.86,4.66a18.44,18.44,0,0,0-2.11-.8,6.7,6.7,0,0,0-2-.3A2.74,2.74,0,0,0,155,33.26a5.81,5.81,0,0,0-.84,3.37c0,2.92,1.08,4.39,3.24,4.39a9.77,9.77,0,0,0,5.32-1.62v5A10.3,10.3,0,0,1,156.89,46Z"/><path class="cls-2" d="M176.63,41.05a9.31,9.31,0,0,0,3-.63V45a11.67,11.67,0,0,1-2.42.78,13.4,13.4,0,0,1-2.7.24c-2.12,0-3.64-.52-4.58-1.56a7,7,0,0,1-1.4-4.78V32.17h-2.21V29.61l2.81-2,1.62-3.83h4.13v3.66h4.48v4.72h-4.48v7.11A1.54,1.54,0,0,0,176.63,41.05Z"/><path class="cls-2" d="M207.08,45.7l-.79-2.27h-.37a5.17,5.17,0,0,1-2.2,1.93,7.73,7.73,0,0,1-3.31.67,6.21,6.21,0,0,1-4.69-1.75A6.85,6.85,0,0,1,194,39.34V27.45h6.3v10a5.72,5.72,0,0,0,.51,2.71,1.77,1.77,0,0,0,1.67.92,2.44,2.44,0,0,0,2.32-1.28,9.82,9.82,0,0,0,.69-4.33v-8h6.3V45.7Z"/><path class="cls-2" d="M231.6,40.1a5.18,5.18,0,0,1-2,4.43,9.4,9.4,0,0,1-5.73,1.5,25.61,25.61,0,0,1-3.53-.22,15,15,0,0,1-3.06-.8V40A18.88,18.88,0,0,0,220.49,41a13.58,13.58,0,0,0,3.12.42c1.36,0,2-.31,2-.93a1.06,1.06,0,0,0-.58-.87,26.77,26.77,0,0,0-3.32-1.47,8.31,8.31,0,0,1-3.52-2.35,5.35,5.35,0,0,1-1-3.32,4.62,4.62,0,0,1,2-4,9.42,9.42,0,0,1,5.56-1.41,14.19,14.19,0,0,1,3.39.39,20.34,20.34,0,0,1,3.3,1.15l-1.71,4.06a20.84,20.84,0,0,0-2.66-1,8.93,8.93,0,0,0-2.29-.39c-1,0-1.54.25-1.54.76a.93.93,0,0,0,.54.79,26.83,26.83,0,0,0,3.11,1.35,11.72,11.72,0,0,1,2.86,1.55,4.65,4.65,0,0,1,1.39,1.78A6.34,6.34,0,0,1,231.6,40.1Z"/></g></g></svg>