<svg xmlns="http://www.w3.org/2000/svg" xmlns:xlink="http://www.w3.org/1999/xlink" viewBox="0 0 451.16 67.01"><defs><style>.cls-1{fill:url(#Gradiente_sem_nome_3);}.cls-2{fill:#fff;}</style><linearGradient id="Gradiente_sem_nome_3" x1="-116.09" y1="33.51" x2="519.1" y2="33.51" gradientUnits="userSpaceOnUse"><stop offset="0" stop-color="#ffef26"/><stop offset="0" stop-color="#ffea21"/><stop offset="0.02" stop-color="#fed70f"/><stop offset="0.04" stop-color="#fdcc04"/><stop offset="0.05" stop-color="#fdc800"/><stop offset="0.77" stop-color="#f18f34"/><stop offset="0.98" stop-color="#e95f32"/></linearGradient></defs><title>BT_DATASET2</title><g id="Camada_2" data-name="Camada 2"><g id="Camada_1-2" data-name="Camada 1"><rect class="cls-1" width="451.16" height="67.01" rx="18.5"/><path class="cls-2" d="M100.35,32.43q0,5.9-3.25,9.08T88,44.7H80.35V21.15h8.16c3.78,0,6.7,1,8.75,2.9S100.35,28.77,100.35,32.43Zm-6.61.22a7.5,7.5,0,0,0-1.28-4.8,4.73,4.73,0,0,0-3.89-1.56H86.72V39.48h1.41a5.14,5.14,0,0,0,4.26-1.68A8.15,8.15,0,0,0,93.74,32.65Z"/><path class="cls-2" d="M123,35.54a9.68,9.68,0,0,1-2.4,7A8.94,8.94,0,0,1,113.8,45a8.73,8.73,0,0,1-6.61-2.57,9.55,9.55,0,0,1-2.46-6.92,9.51,9.51,0,0,1,2.41-6.94,9,9,0,0,1,6.76-2.47,9.65,9.65,0,0,1,4.75,1.14,7.74,7.74,0,0,1,3.18,3.28A10.53,10.53,0,0,1,123,35.54Zm-11.82,0a8.08,8.08,0,0,0,.63,3.58,2.17,2.17,0,0,0,2.11,1.23,2.14,2.14,0,0,0,2.07-1.23,8.44,8.44,0,0,0,.6-3.58,7.93,7.93,0,0,0-.61-3.53,2.42,2.42,0,0,0-4.17,0A7.78,7.78,0,0,0,111.13,35.54Z"/><path class="cls-2" d="M143.58,44.7,141.52,36,141,33.38l-.32-2.11h-.1c-.52,3-.88,4.9-1.06,5.68L137.7,44.7h-6.63l-5-18.25h6.2l1.48,7a42.11,42.11,0,0,1,.82,6h.1a41.63,41.63,0,0,1,.89-5.64l1.69-7.36h7l1.55,7.46q.74,3.56.93,5.54h.1c.06-.82.17-1.83.32-3.05a26.59,26.59,0,0,1,.5-2.94l1.61-7h6.07l-5,18.25Z"/><path class="cls-2" d="M170.74,44.7v-10a5.71,5.71,0,0,0-.52-2.75,1.79,1.79,0,0,0-1.68-.93,2.44,2.44,0,0,0-2.31,1.28,9.63,9.63,0,0,0-.71,4.36v8h-6.3V26.45H164l.79,2.25h.37a4.94,4.94,0,0,1,2.23-1.93,7.87,7.87,0,0,1,3.28-.64,6.21,6.21,0,0,1,4.71,1.75A6.87,6.87,0,0,1,177,32.83V44.7Z"/><path class="cls-2" d="M189,44.7h-6.3V19.63H189Z"/><path class="cls-2" d="M206.54,44.7l-1.2-2.41h-.13a7.27,7.27,0,0,1-2.6,2.16,8.68,8.68,0,0,1-3.41.58,5.36,5.36,0,0,1-4.06-1.55,6,6,0,0,1-1.49-4.35,5,5,0,0,1,2-4.34,11.16,11.16,0,0,1,5.89-1.61l3-.09v-.26a2,2,0,0,0-2.22-2.26,13.21,13.21,0,0,0-5.08,1.36l-1.82-4.16a17.47,17.47,0,0,1,8.06-1.64A7.85,7.85,0,0,1,209,27.87a6.22,6.22,0,0,1,1.92,4.86v12Zm-4.67-4.12a2.82,2.82,0,0,0,2-.73,2.4,2.4,0,0,0,.81-1.88V36.55l-1.45.07c-2.07.07-3.11.83-3.11,2.28C200.08,40,200.68,40.58,201.87,40.58Z"/><path class="cls-2" d="M234,35.54a9.64,9.64,0,0,1-2.41,7A8.9,8.9,0,0,1,224.8,45a8.71,8.71,0,0,1-6.61-2.57,9.55,9.55,0,0,1-2.46-6.92,9.51,9.51,0,0,1,2.41-6.94,9,9,0,0,1,6.76-2.47,9.68,9.68,0,0,1,4.75,1.14,7.8,7.8,0,0,1,3.18,3.28A10.53,10.53,0,0,1,234,35.54Zm-11.82,0a8.1,8.1,0,0,0,.62,3.58,2.19,2.19,0,0,0,2.11,1.23,2.14,2.14,0,0,0,2.08-1.23,8.44,8.44,0,0,0,.6-3.58,7.93,7.93,0,0,0-.61-3.53,2.43,2.43,0,0,0-4.18,0A7.79,7.79,0,0,0,222.13,35.54Z"/><path class="cls-2" d="M244.54,45a5.47,5.47,0,0,1-3.41-1.11,7.21,7.21,0,0,1-2.26-3.28,14.57,14.57,0,0,1-.79-5,11.87,11.87,0,0,1,1.78-7,5.72,5.72,0,0,1,4.92-2.51,5.61,5.61,0,0,1,2.68.61,5.86,5.86,0,0,1,2.1,2.06h.13a30.94,30.94,0,0,1-.3-4.29V19.63h6.35V44.7H251l-1.35-2.3h-.24A5.35,5.35,0,0,1,244.54,45Zm2.58-5a2.35,2.35,0,0,0,2.13-.95,5.76,5.76,0,0,0,.67-2.94v-.49a6.44,6.44,0,0,0-.69-3.45,2.46,2.46,0,0,0-2.18-1,2.11,2.11,0,0,0-1.92,1.17,6.61,6.61,0,0,0-.69,3.33,6.22,6.22,0,0,0,.69,3.24A2.23,2.23,0,0,0,247.12,40.05Z"/><path class="cls-2" d="M291.67,32.43q0,5.9-3.25,9.08t-9.13,3.19h-7.62V21.15h8.15c3.78,0,6.7,1,8.76,2.9S291.67,28.77,291.67,32.43Zm-6.61.22a7.5,7.5,0,0,0-1.28-4.8,4.75,4.75,0,0,0-3.89-1.56H278V39.48h1.42a5.15,5.15,0,0,0,4.26-1.68A8.15,8.15,0,0,0,285.06,32.65Z"/><path class="cls-2" d="M308.75,44.7l-1.21-2.41h-.13a7.27,7.27,0,0,1-2.6,2.16,8.68,8.68,0,0,1-3.41.58,5.36,5.36,0,0,1-4.06-1.55,6,6,0,0,1-1.49-4.35,5,5,0,0,1,2-4.34,11.16,11.16,0,0,1,5.89-1.61l3-.09v-.26a2,2,0,0,0-2.22-2.26,13.21,13.21,0,0,0-5.08,1.36l-1.82-4.16a17.47,17.47,0,0,1,8.06-1.64,7.85,7.85,0,0,1,5.44,1.74,6.22,6.22,0,0,1,1.92,4.86v12Zm-4.68-4.12a2.8,2.8,0,0,0,2-.73,2.4,2.4,0,0,0,.81-1.88V36.55l-1.45.07c-2.07.07-3.11.83-3.11,2.28C302.28,40,302.88,40.58,304.07,40.58Z"/><path class="cls-2" d="M327.66,40.05a9.41,9.41,0,0,0,3-.63V44a11.75,11.75,0,0,1-2.43.78,13.4,13.4,0,0,1-2.7.24c-2.11,0-3.64-.52-4.57-1.56a6.93,6.93,0,0,1-1.41-4.78V31.17h-2.2V28.61l2.8-2,1.63-3.84H326v3.66h4.48v4.72H326v7.11A1.54,1.54,0,0,0,327.66,40.05Z"/><path class="cls-2" d="M347.12,44.7l-1.2-2.41h-.13a7.27,7.27,0,0,1-2.6,2.16,8.68,8.68,0,0,1-3.41.58,5.35,5.35,0,0,1-4.06-1.55,6,6,0,0,1-1.49-4.35,5,5,0,0,1,2-4.34,11.16,11.16,0,0,1,5.89-1.61l3-.09v-.26A2,2,0,0,0,343,30.57a13.16,13.16,0,0,0-5.08,1.36l-1.82-4.16a17.47,17.47,0,0,1,8.06-1.64,7.85,7.85,0,0,1,5.44,1.74,6.22,6.22,0,0,1,1.92,4.86v12Zm-4.67-4.12a2.82,2.82,0,0,0,2-.73,2.4,2.4,0,0,0,.81-1.88V36.55l-1.45.07c-2.07.07-3.11.83-3.11,2.28C340.66,40,341.26,40.58,342.45,40.58Z"/><path class="cls-2" d="M371.2,39.1a5.2,5.2,0,0,1-2,4.43,9.44,9.44,0,0,1-5.74,1.5,25.71,25.71,0,0,1-3.53-.22,15,15,0,0,1-3.06-.8V39A19,19,0,0,0,360.09,40a13.44,13.44,0,0,0,3.11.42c1.37,0,2.05-.31,2.05-.93a1.07,1.07,0,0,0-.57-.87,26.47,26.47,0,0,0-3.33-1.47,8.35,8.35,0,0,1-3.51-2.34,5.34,5.34,0,0,1-1-3.33,4.6,4.6,0,0,1,2-4,9.41,9.41,0,0,1,5.55-1.41,14.22,14.22,0,0,1,3.4.39,20.58,20.58,0,0,1,3.29,1.15l-1.71,4.06a20.3,20.3,0,0,0-2.66-1,8.87,8.87,0,0,0-2.28-.39c-1,0-1.55.25-1.55.76a.93.93,0,0,0,.54.79,27.34,27.34,0,0,0,3.12,1.35,11.91,11.91,0,0,1,2.86,1.55,4.53,4.53,0,0,1,1.38,1.78A6.16,6.16,0,0,1,371.2,39.1Z"/><path class="cls-2" d="M384.83,45a9.82,9.82,0,0,1-7.09-2.43,9.12,9.12,0,0,1-2.52-6.9c0-3.09.78-5.45,2.34-7.1a10.37,10.37,0,0,1,13-.32,8.16,8.16,0,0,1,2.25,6.19v2.81H381.59a3.09,3.09,0,0,0,1.12,2.4,4.37,4.37,0,0,0,2.87.87,13.89,13.89,0,0,0,3.06-.32,14.91,14.91,0,0,0,3-1.07v4.53a11.56,11.56,0,0,1-3.06,1.05A21.57,21.57,0,0,1,384.83,45Zm-.37-14.62a2.62,2.62,0,0,0-1.86.7,3.27,3.27,0,0,0-.88,2.2h5.41a3.13,3.13,0,0,0-.75-2.11A2.46,2.46,0,0,0,384.46,30.41Z"/><path class="cls-2" d="M406.67,40.05a9.36,9.36,0,0,0,3.05-.63V44a11.75,11.75,0,0,1-2.43.78,13.23,13.23,0,0,1-2.69.24q-3.18,0-4.58-1.56a7,7,0,0,1-1.4-4.78V31.17h-2.21V28.61l2.8-2,1.63-3.84H405v3.66h4.48v4.72H405v7.11C405,39.46,405.54,40.05,406.67,40.05Z"/><polygon class="cls-2" points="59.27 31.15 32.28 31.15 45.77 52.33 59.27 31.15"/><rect class="cls-2" x="32.28" y="18.29" width="26.99" height="7.06"/></g></g></svg>