<svg xmlns="http://www.w3.org/2000/svg" xmlns:xlink="http://www.w3.org/1999/xlink" viewBox="0 0 330.44 67.01"><defs><style>.cls-1{fill:url(#Gradiente_sem_nome_3);}.cls-2{fill:#fff;}</style><linearGradient id="Gradiente_sem_nome_3" x1="-85.02" y1="33.51" x2="380.19" y2="33.51" gradientUnits="userSpaceOnUse"><stop offset="0" stop-color="#ffef26"/><stop offset="0" stop-color="#ffea21"/><stop offset="0.02" stop-color="#fed70f"/><stop offset="0.04" stop-color="#fdcc04"/><stop offset="0.05" stop-color="#fdc800"/><stop offset="0.77" stop-color="#f18f34"/><stop offset="0.98" stop-color="#e95f32"/></linearGradient></defs><title>BT_SEND_MESSAGE</title><g id="Camada_2" data-name="Camada 2"><g id="Camada_1-2" data-name="Camada 1"><rect class="cls-1" width="330.44" height="67.01" rx="18.5"/><path class="cls-2" d="M56,37.55a7,7,0,0,1-1.11,3.89,7.29,7.29,0,0,1-3.21,2.64,11.86,11.86,0,0,1-4.92,1,19.85,19.85,0,0,1-3.94-.33,14.49,14.49,0,0,1-3.32-1.16V37.87a19.07,19.07,0,0,0,3.78,1.46,14.09,14.09,0,0,0,3.61.52A3.48,3.48,0,0,0,49,39.36a1.51,1.51,0,0,0,.66-1.26,1.43,1.43,0,0,0-.26-.85,3.13,3.13,0,0,0-.86-.73c-.39-.25-1.43-.75-3.13-1.52a14.58,14.58,0,0,1-3.46-2,6.36,6.36,0,0,1-1.71-2.25,7.54,7.54,0,0,1-.55-3A6,6,0,0,1,42,22.63a10.41,10.41,0,0,1,6.51-1.82A18.24,18.24,0,0,1,56,22.5L54,27.41a14.13,14.13,0,0,0-5.71-1.51,3,3,0,0,0-1.8.43A1.3,1.3,0,0,0,46,27.41a1.53,1.53,0,0,0,.71,1.24,26.45,26.45,0,0,0,3.89,2,10.92,10.92,0,0,1,4.23,2.94A6.4,6.4,0,0,1,56,37.55Z"/><path class="cls-2" d="M69.38,45A9.78,9.78,0,0,1,62.3,42.6a9.14,9.14,0,0,1-2.52-6.9c0-3.09.78-5.45,2.34-7.1a8.72,8.72,0,0,1,6.67-2.47,8.82,8.82,0,0,1,6.37,2.15,8.16,8.16,0,0,1,2.25,6.19v2.81H66.14a3.16,3.16,0,0,0,1.12,2.4,4.42,4.42,0,0,0,2.88.87,13.79,13.79,0,0,0,3-.32,15,15,0,0,0,3-1.07v4.53a11.51,11.51,0,0,1-3.07,1.05A21.49,21.49,0,0,1,69.38,45ZM69,30.41a2.65,2.65,0,0,0-1.86.7,3.31,3.31,0,0,0-.88,2.2h5.42a3.13,3.13,0,0,0-.75-2.11A2.47,2.47,0,0,0,69,30.41Z"/><path class="cls-2" d="M93.81,44.7v-10A5.71,5.71,0,0,0,93.29,32a1.79,1.79,0,0,0-1.69-.93,2.44,2.44,0,0,0-2.3,1.27,9.57,9.57,0,0,0-.71,4.37v8h-6.3V26.45H87l.79,2.25h.37a5,5,0,0,1,2.23-1.93,7.93,7.93,0,0,1,3.28-.64,6.25,6.25,0,0,1,4.72,1.75,6.87,6.87,0,0,1,1.68,4.95V44.7Z"/><path class="cls-2" d="M111.39,45A5.48,5.48,0,0,1,108,43.91a7.12,7.12,0,0,1-2.26-3.27,14.57,14.57,0,0,1-.79-5,11.77,11.77,0,0,1,1.79-7,5.69,5.69,0,0,1,4.91-2.51,5.61,5.61,0,0,1,2.68.61,5.86,5.86,0,0,1,2.1,2.06h.13a30.94,30.94,0,0,1-.3-4.29V19.63h6.35V44.7h-4.76l-1.35-2.3h-.24A5.35,5.35,0,0,1,111.39,45Zm2.58-5a2.36,2.36,0,0,0,2.13-.95,5.79,5.79,0,0,0,.67-2.94v-.5a6.42,6.42,0,0,0-.69-3.44,2.46,2.46,0,0,0-2.18-1A2.11,2.11,0,0,0,112,32.37a6.61,6.61,0,0,0-.69,3.33,6.24,6.24,0,0,0,.69,3.24A2.23,2.23,0,0,0,114,40.05Z"/><path class="cls-2" d="M148.78,44.7l-4.81-17h-.15q.35,4.34.34,6.73V44.7h-5.64V21.15H147l4.91,16.72H152l4.82-16.72h8.49V44.7H159.5V34.38c0-.54,0-1.14,0-1.79s.09-2.27.22-4.82h-.14L154.84,44.7Z"/><path class="cls-2" d="M180.19,45a9.78,9.78,0,0,1-7.08-2.43,9.11,9.11,0,0,1-2.53-6.9c0-3.09.78-5.45,2.34-7.1a10.37,10.37,0,0,1,13-.32,8.16,8.16,0,0,1,2.25,6.19v2.81H177a3.09,3.09,0,0,0,1.12,2.4,4.37,4.37,0,0,0,2.87.87,13.89,13.89,0,0,0,3.06-.32,14.91,14.91,0,0,0,3-1.07v4.53A11.56,11.56,0,0,1,184,44.74,21.57,21.57,0,0,1,180.19,45Zm-.37-14.62a2.65,2.65,0,0,0-1.86.7,3.27,3.27,0,0,0-.88,2.2h5.41a3.13,3.13,0,0,0-.75-2.11A2.46,2.46,0,0,0,179.82,30.41Z"/><path class="cls-2" d="M207.19,39.1a5.18,5.18,0,0,1-2,4.43,9.4,9.4,0,0,1-5.73,1.5,25.61,25.61,0,0,1-3.53-.22,15,15,0,0,1-3.06-.8V39A19.18,19.18,0,0,0,196.08,40a13.58,13.58,0,0,0,3.12.42c1.36,0,2.05-.31,2.05-.93a1.08,1.08,0,0,0-.58-.87,26.77,26.77,0,0,0-3.32-1.47,8.31,8.31,0,0,1-3.52-2.35,5.35,5.35,0,0,1-1-3.32,4.62,4.62,0,0,1,2-4,9.44,9.44,0,0,1,5.56-1.41,14.19,14.19,0,0,1,3.39.39,20.34,20.34,0,0,1,3.3,1.15l-1.71,4.06a20.84,20.84,0,0,0-2.66-1,8.93,8.93,0,0,0-2.29-.39c-1,0-1.54.25-1.54.76a.93.93,0,0,0,.54.79,27.89,27.89,0,0,0,3.11,1.35,11.91,11.91,0,0,1,2.86,1.55,4.58,4.58,0,0,1,1.39,1.78A6.34,6.34,0,0,1,207.19,39.1Z"/><path class="cls-2" d="M226.11,39.1a5.2,5.2,0,0,1-2,4.43,9.41,9.41,0,0,1-5.74,1.5,25.71,25.71,0,0,1-3.53-.22,15.22,15.22,0,0,1-3.06-.8V39A19,19,0,0,0,215,40a13.45,13.45,0,0,0,3.12.42q2,0,2-.93a1.07,1.07,0,0,0-.57-.87,26.47,26.47,0,0,0-3.33-1.47,8.33,8.33,0,0,1-3.51-2.35,5.29,5.29,0,0,1-1-3.32,4.63,4.63,0,0,1,2-4,9.42,9.42,0,0,1,5.56-1.41,14.19,14.19,0,0,1,3.39.39A20.58,20.58,0,0,1,226,27.67l-1.71,4.06a20.69,20.69,0,0,0-2.65-1,9,9,0,0,0-2.29-.39c-1,0-1.55.25-1.55.76a.93.93,0,0,0,.54.79,29.45,29.45,0,0,0,3.12,1.35,11.91,11.91,0,0,1,2.86,1.55,4.46,4.46,0,0,1,1.38,1.78A6.16,6.16,0,0,1,226.11,39.1Z"/><path class="cls-2" d="M242.83,44.7l-1.21-2.41h-.13a7.17,7.17,0,0,1-2.59,2.16,8.7,8.7,0,0,1-3.42.58,5.38,5.38,0,0,1-4.06-1.55,6.06,6.06,0,0,1-1.48-4.35,5,5,0,0,1,2-4.34,11.13,11.13,0,0,1,5.88-1.61l3.05-.09v-.26a2,2,0,0,0-2.23-2.26,13.17,13.17,0,0,0-5.07,1.36l-1.82-4.16a17.42,17.42,0,0,1,8.05-1.64,7.81,7.81,0,0,1,5.44,1.74,6.2,6.2,0,0,1,1.93,4.86v12Zm-4.67-4.12a2.84,2.84,0,0,0,2-.73,2.4,2.4,0,0,0,.81-1.88V36.55l-1.45.06c-2.07.08-3.11.84-3.11,2.29C236.37,40,237,40.58,238.16,40.58Z"/><path class="cls-2" d="M270,26.45v3l-2.5.92a4.37,4.37,0,0,1,.52,2.18A5.48,5.48,0,0,1,266,37.16q-2.07,1.64-6.18,1.63a7.58,7.58,0,0,1-1.61-.13,1.68,1.68,0,0,0-.23.79c0,.31.25.55.76.72a6.63,6.63,0,0,0,2,.25h3q6.13,0,6.14,5.17A5.88,5.88,0,0,1,267,50.78q-2.85,1.84-8,1.85a11.43,11.43,0,0,1-6-1.3A4.12,4.12,0,0,1,251,47.6c0-2.18,1.35-3.58,4.06-4.22a3.69,3.69,0,0,1-1.46-1.14,2.57,2.57,0,0,1-.62-1.56,2.53,2.53,0,0,1,.47-1.51,6.92,6.92,0,0,1,1.95-1.56,4.88,4.88,0,0,1-2.23-2,6.19,6.19,0,0,1-.82-3.26,5.6,5.6,0,0,1,2-4.62,9,9,0,0,1,5.8-1.64c.33,0,.9,0,1.72.11s1.42.14,1.81.21ZM256.27,47a1.4,1.4,0,0,0,.84,1.24,4.49,4.49,0,0,0,2.24.48,9.75,9.75,0,0,0,3.66-.57c.92-.38,1.38-.88,1.38-1.48a1.06,1.06,0,0,0-.84-1,7.46,7.46,0,0,0-2.4-.3h-2.46a3,3,0,0,0-1.72.48A1.36,1.36,0,0,0,256.27,47Zm2-14.55c0,1.86.65,2.8,1.95,2.8a1.6,1.6,0,0,0,1.39-.69,3.61,3.61,0,0,0,.5-2.08c0-1.89-.63-2.84-1.89-2.84S258.25,30.56,258.25,32.43Z"/><path class="cls-2" d="M282.94,45a9.79,9.79,0,0,1-7.09-2.43,9.14,9.14,0,0,1-2.52-6.9c0-3.09.78-5.45,2.34-7.1a8.73,8.73,0,0,1,6.67-2.47,8.82,8.82,0,0,1,6.37,2.15A8.16,8.16,0,0,1,291,34.47v2.81H279.7a3.09,3.09,0,0,0,1.12,2.4,4.37,4.37,0,0,0,2.87.87,13.89,13.89,0,0,0,3.06-.32,14.91,14.91,0,0,0,3-1.07v4.53a11.56,11.56,0,0,1-3.06,1.05A21.57,21.57,0,0,1,282.94,45Zm-.38-14.62a2.65,2.65,0,0,0-1.86.7,3.26,3.26,0,0,0-.87,2.2h5.41a3.13,3.13,0,0,0-.75-2.11A2.47,2.47,0,0,0,282.56,30.41Z"/></g></g></svg>