<svg xmlns="http://www.w3.org/2000/svg" viewBox="0 0 1221.41 39.36"><defs><style>.cls-1{fill:#007d91;}.cls-2{fill:#008aa5;}.cls-3{fill:#0098ba;}.cls-4{fill:#00a7d0;}.cls-5{fill:#00a5b5;}.cls-6{fill:#00a498;}.cls-7{fill:#00a279;}.cls-8{fill:#00925f;}.cls-9{fill:#008349;}.cls-10{fill:#007637;}</style></defs><title>COLOR_BAR_1x</title><g id="Camada_2" data-name="Camada 2"><g id="Camada_1-2" data-name="Camada 1"><polygon class="cls-1" points="1194.11 39.36 1221.41 0 1145.55 0 1118.26 39.36 1194.11 39.36"/><polygon class="cls-2" points="1069.86 39.36 1097.16 0 1021.3 0 994.01 39.36 1069.86 39.36"/><polygon class="cls-3" points="945.61 39.36 972.91 0 897.05 0 869.76 39.36 945.61 39.36"/><polygon class="cls-4" points="821.36 39.36 848.66 0 772.8 0 745.5 39.36 821.36 39.36"/><polygon class="cls-5" points="697.11 39.36 724.41 0 648.55 0 621.25 39.36 697.11 39.36"/><polygon class="cls-6" points="572.86 39.36 600.16 0 524.3 0 497 39.36 572.86 39.36"/><polygon class="cls-7" points="448.61 39.36 475.9 0 400.05 0 372.75 39.36 448.61 39.36"/><polygon class="cls-8" points="324.36 39.36 351.65 0 275.8 0 248.5 39.36 324.36 39.36"/><polygon class="cls-9" points="200.11 39.36 227.4 0 151.55 0 124.25 39.36 200.11 39.36"/><polygon class="cls-10" points="75.86 39.36 103.15 0 27.3 0 0 39.36 75.86 39.36"/></g></g></svg>